<?xml version="1.0" standalone="no"?>
<!DOCTYPE svg PUBLIC "-//W3C//DTD SVG 1.1//EN" "http://www.w3.org/Graphics/SVG/1.1/DTD/svg11.dtd">
<svg xmlns="http://www.w3.org/2000/svg">
<metadata>Copyright (C) 2020 by original authors @ fontello.com</metadata>
<defs>
<font id="erxes" horiz-adv-x="1000" >
<font-face font-family="erxes" font-weight="400" font-stretch="normal" units-per-em="1000" ascent="850" descent="-150" />
<missing-glyph horiz-adv-x="1000" />
<glyph glyph-name="linkedin" unicode="&#xe800;" d="M853 767h-706a60 60 0 0 1-61-60v-714a60 60 0 0 1 61-60h706a60 60 0 0 1 61 60v714a60 60 0 0 1-61 60z m-516-698h-125v375h125z m-62 428h0a65 65 0 1 0 0 130 65 65 0 1 0 0-130z m513-428h-125v201c0 51-18 84-63 84a69 69 0 0 1-65-46 83 83 0 0 1-4-30v-208h-125s0 340 0 375h125v-53a125 125 0 0 0 113 62c84 0 144-54 144-169z" horiz-adv-x="1000" />

<glyph glyph-name="alarm-2" unicode="&#xe801;" d="M912 106c-4 21-25 35-46 31-21-4-35-24-31-45 3-16-4-27-8-33-5-5-15-14-30-14h-593c-16 0-26 9-30 14-5 6-12 17-9 33 11 59 33 98 55 135 26 46 53 93 53 166v59c0 123 100 224 223 226h8c122-2 222-103 222-226v-59c0-62 21-105 40-140 7-13 20-20 34-20 6 0 13 1 18 5 19 10 26 34 16 53-19 34-30 62-30 102v59c0 80-31 156-87 213-49 50-111 80-178 89v57c0 22-18 39-39 39-22 0-39-17-39-39v-57c-150-20-266-148-266-302v-59c0-52-19-85-43-127-23-41-50-88-64-160-6-34 3-69 25-96 23-27 56-43 91-43h179c0-64 53-117 117-117s118 53 118 117h179c34 0 67 16 90 43 22 27 31 62 25 96z m-412-178c-21 0-39 18-39 39h78c0-21-17-39-39-39z" horiz-adv-x="1000" />

<glyph glyph-name="alarm" unicode="&#xe802;" d="M912 106c-4 21-24 35-46 31-21-4-35-24-31-45 3-16-4-27-8-33-4-5-14-14-30-14h-593c-16 0-26 9-30 14-4 6-11 17-8 33 11 59 33 98 54 135 26 46 53 93 53 166v59c0 123 101 224 224 226h7c123-2 223-103 223-226v-59c0-62 20-105 39-140 7-13 20-20 34-20 7 0 13 1 19 5 19 10 26 34 16 53-19 34-30 62-30 102v59c0 80-31 156-88 213-48 50-111 80-178 89v57c0 22-17 39-39 39-22 0-39-17-39-39v-57c-149-20-266-148-266-302v-59c0-52-19-85-42-127-24-41-51-88-64-160-7-34 2-69 25-96 22-27 55-43 90-43h180c0-64 52-117 117-117s117 53 117 117h179c35 0 68 16 90 43 22 27 32 62 25 96z m-411-178c-22 0-39 18-39 39h78c0-21-18-39-39-39z m-289 834c-16 14-41 13-55-3-76-85-118-194-118-307 0-22 18-39 39-39s39 17 39 39c0 94 35 185 98 255 14 16 13 41-3 55z m632-3c-15 16-40 17-56 3s-17-39-3-55c63-70 98-161 98-255 0-22 17-39 39-39 21 0 39 17 39 39 0 113-42 222-117 307z" horiz-adv-x="1000" />

<glyph glyph-name="alignleft" unicode="&#xe803;" d="M695 620h-656c-21 0-39-18-39-39s18-40 39-40h656c22 0 39 18 39 40 0 21-17 39-39 39z m266 230h-922c-21 0-39-17-39-39s18-39 39-39h922c22 0 39 17 39 39s-17 39-39 39z m0-922h-922c-21 0-39-17-39-39 0-22 18-39 39-39h922c22 0 39 17 39 39 0 22-17 39-39 39z m-266 231h-656c-21 0-39-18-39-39 0-22 18-39 39-39h656c22 0 39 17 39 39 0 21-17 39-39 39z m266 230h-922c-21 0-39-17-39-39 0-22 18-39 39-39h922c22 0 39 17 39 39s-17 39-39 39z" horiz-adv-x="1000" />

<glyph glyph-name="alignright" unicode="&#xe804;" d="M961 620h-656c-22 0-39-18-39-39s17-40 39-40h656c22 0 39 18 39 40 0 21-17 39-39 39z m0 230h-922c-21 0-39-17-39-39s18-39 39-39h922c22 0 39 17 39 39s-17 39-39 39z m0-922h-922c-21 0-39-17-39-39 0-22 18-39 39-39h922c22 0 39 17 39 39 0 22-17 39-39 39z m0 231h-656c-22 0-39-18-39-39 0-22 17-39 39-39h656c22 0 39 17 39 39 0 21-17 39-39 39z m0 230h-922c-21 0-39-17-39-39 0-22 18-39 39-39h922c22 0 39 17 39 39s-17 39-39 39z" horiz-adv-x="1000" />

<glyph glyph-name="whatsapp-1" unicode="&#xe805;" d="M729 251c-12 6-73 36-85 40-11 4-20 6-28-6-8-13-32-40-39-49-8-8-15-8-27-3-13 6-53 20-100 62-37 33-62 74-69 86-8 13-1 20 5 26 6 6 12 14 19 22 6 7 8 12 12 20 4 9 2 16-1 22-3 7-28 68-38 92-10 25-21 21-28 21-8 1-16 1-24 1-8 0-22-3-33-15-12-12-44-42-44-103s45-119 51-128c6-8 88-133 212-187 30-13 53-20 71-26 30-10 57-8 79-5 24 3 73 30 84 59 10 29 10 54 7 59-3 6-11 9-24 15m-226-310h-1c-74 0-147 20-211 57l-15 9-156-40 42 151-10 16c-41 66-63 141-63 219 0 227 185 412 414 412 111 0 214-43 293-121 78-78 121-181 121-291 0-227-186-412-414-412m352 762c-95 92-220 144-353 144-274 0-498-222-498-495 0-88 23-173 67-248l-71-257 264 69c73-40 155-60 238-60h0c275 0 498 222 498 495 0 133-52 257-146 351" horiz-adv-x="1000" />

<glyph glyph-name="gmail" unicode="&#xe806;" d="M1000 663v-625c0-36-27-63-62-63h-63v567l-375-269-375 269v-567h-62c-36 0-63 27-63 63v625c0 17 7 33 18 44 11 11 27 18 45 18h20l417-302 417 302h21c17 0 33-7 44-18 11-11 18-27 18-44z" horiz-adv-x="1000" />

<glyph glyph-name="viber" unicode="&#xe807;" d="M867 753c-25 22-125 95-349 96 0 0-264 16-392-102-72-71-97-176-100-306-2-130-6-373 229-439h0l0-101s-1-41 25-49c33-10 52 21 83 54 17 19 40 46 58 66 161-13 284 18 298 22 32 11 216 34 246 278 30 251-15 409-98 481z m27-463c-25-204-174-217-201-225-12-4-121-31-257-22 0 0-102-123-133-155-5-5-11-6-15-6-6 2-7 8-7 17l1 167c-1 0 0 0 0 0-199 56-187 263-185 371 2 109 23 197 84 257 108 99 333 84 333 84 189 0 280-58 301-77 69-59 105-202 79-412z m-571 353c10 0 19-5 26-13 0-1 24-29 34-44 10-13 23-34 30-46 12-21 4-43-7-52l-24-19c-12-9-10-27-10-27s35-132 165-165c0 0 17-1 27 11l19 23c9 12 30 20 52 8 12-6 33-20 46-30 14-10 43-34 43-34 14-11 17-29 8-46v-1c-10-17-23-32-39-47h0c-14-12-27-18-40-19-1 0-3-1-5 0-6 0-12 1-17 2v1c-20 6-53 20-108 51-36 20-66 40-92 60-13 11-27 23-40 37l-3 1-2 1-1 1c-14 14-26 28-36 41-20 25-40 55-60 91-31 55-45 88-51 108h0c-2 6-4 12-3 17-1 3 0 5 0 6 1 13 8 26 19 40h0c15 16 31 29 48 38 7 4 14 6 20 6h1z m170 28h5l3 0h1l4 0h21l6-1h3l6-1h1l5 0h0l3-1c2 0 3 0 5 0h3l4-2 2 0 3-1 1-1h2l2 0h1l3-1 2 0 2-1 2-1 1 0c2 0 3-1 4-1l2-1 2 0 5-2 2-1 6-3 2 0 2-1 4-2 2-1 1 0 3-1 2-1 2-1 2-1 2-1 2-1 2-2 2 0 2-2 2-1 3-2 2 0 3-2 1-1 2-1 3-3 2-1 2-2 1 0 2-2 3-3 3-2 2-1 0 0 2-1 3-3 2-1 1-2 2-1 2-1 1-1 5-5 2-2 6-6 1-1c1-1 2-2 3-3l1-2 7-8 2-2c0-1 0-1 1-1l4-6 2-2 3-5 3-5 2-4 3-4 2-4 0-1 2-3 3-6 3-6 1-3c3-6 4-11 7-18 3-8 6-17 7-26 2-7 4-13 5-20l1-11 2-13c1-5 1-10 1-15 1-5 1-10 1-15v-11c0-1 0-1-1-2 0-1-1-2-2-3-1-1-2-2-4-2-1 0-2 0-3 0h-2c-1 0-3 0-4 1-1 0-2 1-3 2-1 2-2 3-3 4 0 1-1 3-1 4v15c0 9-1 18-2 26-1 7-2 12-3 18 0 3 0 6-1 9l-1 6-2 6 0 3-2 7c-2 5-3 10-5 15-2 3-3 6-5 10l-1 3-6 11-1 2c-2 5-5 11-9 16l-2 3h-8l-3 4c-2 4-5 7-8 10l-5 6 0 1-2 2-2 2-3 3-1 1-3 3-1 2-4 3-2 1-1 2-1 1c-1 1-2 2-3 2l-3 3-2 1-2 2-3 2-2 2-1 0-3 2c0 1 0 1-1 1l-1 1-1 1v1l-1 0-3 2-2 1-3 2-2 2-1 0-2 1h-3l-1 1-3 1 0 1-2 0-1 1h-1l-2 1-1 0-2 1 0 1-1 0-3 1-1 1-4 1-3 2-5 0-2 1c-1 1-2 1-2 1l-1 1c-2 0-2 0-4 1l-1 1h-1l-3 1-1 0-2 1h-3c-1 0-1 0-2 0h-3l-2 1h-1l-2 1h-2c-1 0-1 0-2 0l-1 1-2 0c-2 1-3 1-4 1l-2 1-2 0-2 1-2 1h-3l-7 1h-4l-5 0h-3l-3 1h-1l-2 0h-12l-1 1h-2c-1 0-3 1-4 1-1 1-2 1-3 3l-2 2c-1 1-1 2-1 3-1 2-1 3-1 4 0 1 0 3 1 4 0 1 1 2 2 3 1 1 2 2 3 2 1 1 3 2 4 2h2z m23-66l2 0 2 0c1 0 1 0 2 0 0 0 1 0 3 0l2-1 1 0 2-1 2-1 2 0h1l2-1 3 0 2-1 1-1h3l5-1 2-1 2 0 2-1s1 0 1 0l1-1 2-1 2 0c1 0 1-1 2-1 0 0 1-1 1-1l3-1h1l4-1 2-1 2-2 4-1 3-1 1-1c2-1 4-2 6-3l2-1 2-1 2-2c2-1 3-1 5-3l1 0 2-2 1 0 3-2 1-1 3-2 1-1 1 0 2-2 3-2c0 0 1 0 1-1 1 0 1 0 1-1l2-1 1-2 1-1 2-2 2-1 0-1 4-3 1-1c0-1 0-1 1-1l0-1 2-2 2-2 1-1 2-2 2-2 3-5 1-1 2-4 1-1 1-1 0-1 1-2c1 0 1-1 1-2l2-3 1-1 1-2 1-2c1-1 1-1 1-2l2-2 1-2 1-3 1-2c0-2 2-3 2-5 0 0 1-1 1-2l2-5 2-8c0 0 1-2 1-2l2-6 2-7 2-10c0-4 0-6 1-9 0-5 1-10 1-15l1-9v-7c0 0 0-1-1-2l-2-1c-1-1-2-2-3-3-1-1-2-1-4-2-1 0-3 0-4 0-1 0-2 0-4 1 0 0-1 1-2 1-1 0-2 1-3 3-1 1-2 2-2 3l0 2v13c0 6-1 11-1 16-1 6-2 12-4 18-1 4-1 7-3 11l-1 3-1 4-1 1-2 5-2 4-3 6-3 5v0l-1 2-1 2-2 3-2 3-4 5c-1 2-3 5-5 7-1 1-2 1-2 2l-1 1-1 1-1 0-1 1v7l-5 4-3 3v1l-1 1-2 1-1 1c0 0 0 0-1 0l-2 1 0 1-3 2-1 0 0 1c-1 0-1 0-1 0l-3 2-1 1-2 1 0 1-2 1-2 1-1 1-1 1h-1c-1 1-2 2-4 3l-2 1-1 1-1 0-2 1-2 1-2 1-2 1-1 1-2 0v1l-4 1-2 1-1 1h-3c-1 1-2 1-3 1h-2l-2 1h-2l-2 0-1 1h-2l-3 1-1 0h-7l-3 1h-14l-2 1c-2 0-3 1-4 2-1 1-2 3-3 4 0 1-1 2-1 4v3c0 2 1 3 1 5 1 0 1 1 2 2 0 1 2 2 3 3 0 0 1 0 2 1 1 1 2 1 3 1h3z m19-67c1 0 1 0 2-1 1 0 1 0 2 0l2 0c4 0 9-1 13-2l5-1 1 0 4-1 3-1 2-1c2 0 4-2 5-2l1-1 3-1 3-2 2-1c0 0 1 0 1-1 1-1 2-1 3-2 2-1 4-3 6-4l5-4 3-4 3-3 1-1 1-1 2-3 4-5 3-6 3-5 1-4c2-5 3-9 4-13 1-4 2-8 3-12l0-6 1-6v-2c0-2-1-3-1-5-1-1-2-3-3-3-2-2-3-2-5-3-1 0-2 0-4 0-1 0-2 0-3 0l-5 2c-1 1-2 2-3 4-1 1-2 2-2 4v7l-1 4-1 5 0 5-1 2c0 1 0 2 0 3-2 5-4 10-7 15l-2 2-2 3-2 2-1 1-3 2-2 3-3 2c0 0-1 0-2 1l-4 3-2 1-2 0h0l-3 2-4 1-4 1h-3l-2 0-1 1h-2l-3 0h-10l-1 3h-2c-1 1-2 1-3 2-1 0-3 1-4 3-1 1-1 2-2 4 0 1 0 2 0 3 0 2 0 4 0 5s2 3 3 4l2 2c2 1 3 1 4 1l3 4h1z" horiz-adv-x="1000" />

<glyph glyph-name="avi" unicode="&#xe808;" d="M292 767c-46 0-84-38-84-84l0-208c-46 0-83-37-83-83l0-209c0-46 37-83 83-83l0-83c0-46 38-84 84-84l500 0c46 0 83 38 83 84l0 507c0 22-9 43-24 59l-160 159c-15 16-37 25-59 25l-340 0z m0-84l333 0 0-125c0-23 19-41 42-41l125 0 0-500-500 0 0 83 333 0c46 0 83 37 83 83l0 209c0 46-37 83-83 83l-333 0 0 208z m-28-291l55 0 56-209-44 0-11 42-57 0-11-42-44 0 56 209z m111 0l44 0 39-152 39 152 45 0-57-209-54 0-56 209z m208 0l42 0 0-209-42 0 0 209z m-292-57l-17-68 35 0-18 68z" horiz-adv-x="1000" />

<glyph glyph-name="briefcase" unicode="&#xe809;" d="M961 202c22 0 39 17 39 39v257c0 87-70 157-156 157h-168v51c0 59-48 107-108 107h-136c-59 0-108-48-108-107v-51h-168c-86 0-156-70-156-157v-455c0-86 70-156 156-156h688c86 0 156 70 156 156 0 22-17 39-39 39-22 0-39-17-39-39 0-43-35-78-78-78h-688c-43 0-78 35-78 78v278h385v-59c0-21 17-39 39-39s39 18 39 39v59h381v-80c0-22 17-39 39-39z m-558 504c0 16 13 29 29 29h136c16 0 30-13 30-29v-51h-195v51z m-325-307v99c0 44 35 79 78 79h688c43 0 78-35 78-79v-99h-844z" horiz-adv-x="1000" />

<glyph glyph-name="facebook" unicode="&#xe80a;" d="M630 628h78v133a1088 1088 0 0 1-114 6c-113 0-191-69-191-196v-109h-128v-149h128v-380h154v380h127l19 149h-146v94c0 44 11 72 73 72z" horiz-adv-x="1000" />

<glyph glyph-name="csv-import" unicode="&#xe80b;" d="M292 767c-46 0-84-38-84-84l0-208-41 0c-46 0-84-37-84-83l0-209c0-46 38-83 84-83l41 0 0-83c0-46 38-84 84-84l291 0c23 0 42 19 42 42 0 23-19 42-42 42l-291 0 0 83 306 0c22 0 43 9 59 24l194 194c15 16 24 37 24 59l0 147c0 22-9 43-24 59l-160 159c-15 16-37 25-59 25l-340 0z m0-84l333 0 0-125c0-23 19-41 42-41l125 0 0-42-500 0 0 208z m-42-291c46 0 83-38 83-84l-41 0c0 23-19 42-42 42-23 0-42-19-42-42l0-41c0-23 19-42 42-42 23 0 42 19 42 42l41 0c0-46-37-84-83-84-46 0-83 38-83 84l0 41c0 46 37 84 83 84z m194 0c59-2 62-54 62-63l-40 0c0 4 1 29-23 29-7 0-24-3-23-23 2-19 26-27 30-29 10-4 56-24 56-66 0-9-2-56-62-57-65 0-69 56-69 67l41 0c0-6 0-36 28-33 17 1 21 13 22 22 1 16-14 25-29 32-22 11-56 23-57 64-1 37 26 58 64 57z m98 0l44 0 39-152 39 152 44 0-56-209-54 0-56 209z m291-209c-8 0-17-3-23-9l-100-100c-10-10-13-24-7-37 5-12 17-20 30-20l59 0 0-125c0-23 18-42 41-42 23 0 42 19 42 42l0 125 58 0c14 0 26 8 31 20 2 4 3 9 3 13 0 9-4 17-10 24l-100 100c-7 6-15 9-24 9z" horiz-adv-x="1000" />

<glyph glyph-name="twitter" unicode="&#xe80c;" d="M917 608a354 354 0 0 0-99-26 172 172 0 0 1 76 94 342 342 0 0 0-109-41 171 171 0 0 1-292-156 485 485 0 0 0-352 179 173 173 0 0 1-23-87 170 170 0 0 1 76-142 169 169 0 0 0-77 21v-2a171 171 0 0 1 137-166 164 164 0 0 0-46-7 204 204 0 0 0-32 3 171 171 0 0 1 160-119 343 343 0 0 0-211-73 330 330 0 0 0-42 2 482 482 0 0 1 262-77 483 483 0 0 1 488 487c0 7 0 15 0 22a351 351 0 0 1 84 88z" horiz-adv-x="1000" />

<glyph glyph-name="cancel" unicode="&#xe80d;" d="M555 350l434 433c15 16 15 40 0 56-16 15-40 15-56 0l-433-434-433 434c-16 15-40 15-56 0-15-16-15-40 0-56l434-433-434-433c-15-16-15-40 0-56 8-7 18-11 28-11 10 0 20 4 28 11l433 434 433-434c8-7 18-11 28-11s20 4 28 11c15 16 15 40 0 56l-434 433z" horiz-adv-x="1000" />

<glyph glyph-name="chat" unicode="&#xe80e;" d="M852 716c-94 87-219 134-352 134s-258-47-352-134c-95-87-148-203-148-327 0-96 32-188 92-266l-89-219c-6-15-2-32 9-43 7-7 17-11 27-11 5 0 11 1 16 3l251 111c62-24 127-36 194-36 84 0 168 20 241 57 19 10 27 33 17 53-10 19-33 27-52 17-63-32-134-49-206-49-63 0-123 12-179 36-10 5-21 5-31 0l-179-78 62 151c5 14 3 29-7 40-57 68-88 149-88 234 0 211 189 383 422 383s422-172 422-383c0-73-23-143-65-204-13-18-8-42 9-55 18-12 42-8 55 10 52 74 79 160 79 249 0 124-52 240-148 327z" horiz-adv-x="1000" />

<glyph glyph-name="check" unicode="&#xe80f;" d="M985 717c-16 14-41 11-54-6l-520-646c-7-8-17-12-27-13-11 0-21 4-29 11l-289 277c-15 15-40 15-55-1-15-16-15-40 1-55l290-278c22-21 50-32 80-32 2 0 3 0 5 0 32 1 61 15 83 39 0 1 0 1 1 2l520 647c14 17 11 42-6 55z" horiz-adv-x="1000" />

<glyph glyph-name="chevron" unicode="&#xe810;" d="M719 433l-405 406c-15 15-40 15-55 0-16-16-16-40 0-56l404-405c16-16 16-40 0-56l-404-405c-16-16-16-40 0-56 7-7 17-11 27-11 10 0 20 4 28 11l405 406c45 46 45 120 0 166z" horiz-adv-x="1000" />

<glyph glyph-name="help-circled" unicode="&#xe811;" d="M454 810q190 2 326-130t140-322q2-190-131-327t-323-141q-190-2-327 131t-139 323q-4 190 130 327t324 139z m-2-740q30 0 49 19t19 47q2 30-17 49t-49 19l-2 0q-28 0-47-18t-21-46q0-30 19-49t47-21l2 0z m166 328q26 34 26 78 0 78-54 116-52 38-134 38-64 0-104-26-68-42-72-146l0-4 110 0 0 4q0 26 16 54 16 24 54 24 40 0 52-20 16-20 16-44 0-18-16-40-8-12-20-20l-6-4q-6-4-16-11t-20-15-21-17-17-17q-14-20-18-78l0-8 108 0 0 4q0 12 4 28 6 20 28 36l28 18q46 34 56 50z" horiz-adv-x="920" />

<glyph glyph-name="clicker" unicode="&#xe812;" d="M961 166c22 0 39 18 39 40v177c0 65-48 112-114 112-19 0-37-5-53-14-4 5-9 10-15 15-22 18-49 28-76 28-24 0-47-8-66-22-1 1-2 2-3 3-21 19-48 29-75 29-12 0-23-2-33-5v210c0 61-50 111-112 111s-111-50-111-111v-486c0-19-13-47-34-49l-149 68c-1 0-2 1-4 1-12 5-25 7-38 7-64 0-117-53-117-117 0-32 13-62 35-84 2-2 3-3 5-4l31-22c1-1 1-1 2-2l189-117c87-55 188-84 292-84h228c93 0 176 59 206 147 7 20-4 43-24 49-21 7-43-3-50-24-19-56-72-94-132-94h-228c-89 0-176 25-251 72l-187 117-28 19c-6 8-10 17-10 27 0 21 18 39 39 39 4 0 8-1 11-2l149-68c1-1 2-1 3-1 10-4 20-6 29-6 69 3 111 69 111 128v486c0 18 15 33 33 33 18 0 33-15 33-33v-326c0-22 18-39 39-39 22 0 40 17 40 39v14c0 1 0 2 0 3 4 15 18 26 33 26 17 0 32-13 33-28 2-37 27-47 42-47 15 0 34 9 40 35 1 4 2 8 2 12 0 1 1 3 1 4 6 9 16 14 26 14 17 0 31-13 34-18 0-1 0-1 0-1 0-1 0-6 2-13 7-37 31-41 42-41 9 0 26 4 38 26 3 4 12 17 28 17 11 0 36-3 36-33v-177c0-22 17-40 39-40z" horiz-adv-x="1000" />

<glyph glyph-name="clip" unicode="&#xe813;" d="M945 751c-36 37-80 56-126 56-1 0-1 0-2 0-44-1-87-19-122-53l0 0-447-454c-44-45-44-111 0-156 22-22 50-34 78-34h0c29 0 57 12 79 34l308 315c15 16 15 41 0 56-16 15-40 14-56-1l-308-315c-7-7-15-11-23-11-8 0-15 4-22 11-21 21-7 39 0 46l446 453c43 42 97 41 139-2 50-50 36-109 1-145-15-15-15-40 0-55 16-15 40-15 55 0 35 35 54 79 55 124 1 48-19 94-55 131z m-123-326c-15 15-40 15-55-1l-386-398c-34-35-79-55-124-55h0c-45 0-88 19-124 56-84 85-61 185 0 246l385 385c15 15 15 40 0 55-16 16-40 16-55 0l-385-384-1-1c-48-48-75-110-77-173-2-67 25-130 77-183 51-51 114-79 180-79h0c67 0 130 28 180 78l386 399c15 15 15 40-1 55z" horiz-adv-x="1000" />

<glyph glyph-name="doc" unicode="&#xe814;" d="M250 767c-46 0-83-38-83-84l0-208c-46 0-84-37-84-83l0-209c0-46 38-83 84-83l0-83c0-46 37-84 83-84l500 0c46 0 83 38 83 84l0 166 0 209 0 149a42 42 0 0 1-12 30l-184 184a42 42 0 0 1-29 12l-358 0z m0-84l333 0 0-125c0-23 19-41 42-41l125 0 0-42-500 0 0 208z m417-291c46 0 83-38 83-84l-42 0c0 23-18 42-41 42-23 0-42-19-42-42l0-41c0-23 19-42 42-42 23 0 41 19 41 42l42 0c0-46-37-84-83-84-46 0-84 38-84 84l0 41c0 46 38 84 84 84z m-500-1l68 0c66 0 98-40 98-88l0-32c0-49-33-88-99-88l-67 0 0 208z m291-2c78 1 84-74 84-89l0-33c0-15-4-88-83-86-85 2-84 71-84 86l0 33c0 15 7 88 83 89z m0-34c-39-1-41-45-41-54l0-34c0-10 6-53 42-52 34 1 41 43 41 52l0 34c0 9-5 55-42 54z m-250-6l0-124 26 0c26 0 58 8 58 46l0 32c0 38-31 46-57 46l-27 0z m42-249l500 0 0-83-500 0 0 83z" horiz-adv-x="1000" />

<glyph glyph-name="file-2" unicode="&#xe815;" d="M292 767c-46 0-84-38-84-84l0-208 0-458c0-46 38-84 84-84l500 0c46 0 83 38 83 84l0 507c0 22-9 43-24 59l-160 159c-15 16-37 25-59 25l-340 0z m0-84l333 0 0-125c0-23 19-41 42-41l125 0 0-500-500 0 0 83 0 375 0 208z m-1-348l18-68-18 68z" horiz-adv-x="1000" />

<glyph glyph-name="jpg" unicode="&#xe816;" d="M250 767c-46 0-83-38-83-84l0-208c-46 0-84-37-84-83l0-209c0-46 38-83 84-83l0-83c0-46 37-84 83-84l500 0c46 0 83 38 83 84l0 524a42 42 0 0 1-12 30l-184 184a42 42 0 0 1-29 12l-358 0z m0-84l333 0 0-125c0-23 19-41 42-41l125 0 0-42-500 0 0 208z m0-291l42 0 0-146c0-35-28-63-63-63-34 0-62 28-62 63l41 0c0-12 10-21 21-21 12 0 21 9 21 21l0 146z m83 0l63 0c34 0 62-28 62-63 0-34-28-62-62-62l-21 0 0-84-42 0 0 209z m252 0c49 0 68-23 76-42l-54 0-24 0c-36 1-41-36-41-45l0-35c0-9 8-45 49-45 11 0 33 7 34 7l-1 35-41 0 1 41 83 0 0-99c-3-2-30-24-79-26-14 0-82-1-88 87l0 35c0 14-2 87 85 87z m-210-42l0-42 21 0c11 0 21 10 21 21 0 12-10 21-21 21l-21 0z m-125-250l500 0 0-83-500 0 0 83z" horiz-adv-x="1000" />

<glyph glyph-name="compass" unicode="&#xe817;" d="M709 561c-11 12-28 15-43 8l-434-189c-14-6-23-21-23-37 0-16 10-30 25-35l162-62 61-160c10-25 31-27 37-27 0 0 0 0 0 0 16 0 30 9 36 24l188 435c6 15 3 32-9 43z m-213-359c-12 31-24 64-34 88-4 10-12 18-22 22l-89 34 256 112-111-256z m358 502c-95 94-220 146-354 146s-259-52-354-146c-94-95-146-220-146-354s52-259 146-354c95-94 220-146 354-146 91 0 181 25 259 72 18 11 24 35 13 54-11 18-35 24-54 13-65-40-141-61-218-61-233 0-422 189-422 422s189 422 422 422 422-189 422-422c0-83-25-164-72-234-12-18-7-42 11-54 18-12 42-7 54 10 56 83 85 179 85 278 0 134-52 259-146 354z" horiz-adv-x="1000" />

<glyph glyph-name="copy" unicode="&#xe818;" d="M717 639h-278c-21 0-39-17-39-39s18-39 39-39h278c21 0 39 17 39 39s-18 39-39 39z m0-156h-278c-21 0-39-18-39-39s18-39 39-39h278c21 0 39 17 39 39s-18 39-39 39z m-158-156h-120c-21 0-39-18-39-40 0-21 18-39 39-39h120c21 0 39 18 39 39 0 22-18 40-39 40z m316-8c22 0 39 17 39 39v336c0 86-70 156-156 156h-360c-86 0-156-70-156-156-86 0-156-70-156-156v-532c0-86 70-156 156-156h379c86 0 156 70 156 156v2c77 9 137 75 137 155 0 21-17 39-39 39-21 0-39-18-39-39 0-44-35-79-78-79l-360 0h0c-20 0-40 8-55 23-15 15-23 35-23 55v532c0 43 35 78 78 78h360c43 0 78-35 78-78v-336c0-22 18-39 39-39z m-477-313h1l300 0c0-43-35-78-78-78h-379c-43 0-78 35-78 78v532c0 43 35 78 78 78v-454c0-41 16-81 46-110 30-30 69-46 110-46z" horiz-adv-x="1000" />

<glyph glyph-name="creditcard" unicode="&#xe819;" d="M961 295c22 0 39 18 39 39v227c0 86-70 156-156 156h-688c-86 0-156-70-156-156v-422c0-86 70-156 156-156h688c86 0 156 70 156 156 0 22-17 39-39 39-22 0-39-17-39-39 0-43-35-78-78-78h-688c-43 0-78 35-78 78v293h844v-98c0-21 17-39 39-39z m-883 215v51c0 43 35 78 78 78h688c43 0 78-35 78-78v-51h-844z" horiz-adv-x="1000" />

<glyph glyph-name="mp3" unicode="&#xe81a;" d="M292 767c-46 0-84-38-84-84l0-208-83 0c-46 0-83-37-83-83l0-209c0-46 37-83 83-83l83 0 0-83c0-46 38-84 84-84l500 0c45 0 83 38 83 84l0 524a42 42 0 0 1-12 30l-184 184a42 42 0 0 1-30 12l-357 0z m0-84l333 0 0-125c0-23 19-41 42-41l125 0 0-500-500 0 0 83 375 0c46 0 83 37 83 83l0 209c0 46-37 83-83 83l-375 0 0 208z m301-286c67 1 71-50 71-60-1-28-26-42-31-44 12-4 34-16 34-49-1-62-64-61-74-60-58 3-69 49-69 59l47 0c0-4 3-27 23-26 25 1 26 17 26 28 1 11-8 31-27 31l-23 0 0 32 23 0c24 3 24 20 24 29 0 4-1 26-22 26-20 0-22-19-22-23l-47 0c0 9 6 55 67 57z m-218-5l42 0 21 0c34 0 62-28 62-63 0-34-28-62-62-62l-21 0 0-84-42 0 0 84 0 125z m-250-1l61 0 43-150 44 150 60 0 0-208 0 0-41 0 0 57 4 86-51-143-32 0-51 143 5-86 0-57-42 0 0 208z m292-41l0-42 21 0c11 0 20 10 20 21 0 12-9 21-20 21l-21 0z" horiz-adv-x="1000" />

<glyph glyph-name="cube-1" unicode="&#xe81b;" d="M844 850h-451c-43 0-85-18-114-49l-220-219c-36-29-59-73-59-123v-453c0-86 70-156 156-156h451c45 0 85 19 114 48 0 1 0 1 0 1l233 231 1 1c29 29 45 68 45 110v453c0 86-70 156-156 156z m-509-104l1 1c15 16 35 25 57 25h451l-171-171c-20 10-42 15-66 15h-403l131 130z m587-505c0-21-8-41-23-55l-135-135v72c0 22-18 40-39 40-22 0-39-18-39-40v-117c0-43-35-78-79-78h-451c-43 0-78 35-78 78v453c0 44 35 79 78 79h451c44 0 79-35 79-79v-140c0-22 17-39 39-39 21 0 39 17 39 39v140c0 35-11 67-30 93l179 179c6-11 9-24 9-37v-453z" horiz-adv-x="1000" />

<glyph glyph-name="pdf" unicode="&#xe81c;" d="M250 767c-46 0-83-38-83-84l0-208c-46 0-84-37-84-83l0-209c0-46 38-83 84-83l0-83c0-46 37-84 83-84l500 0c46 0 83 38 83 84l0 524a42 42 0 0 1-12 30l-184 184a42 42 0 0 1-29 12l-358 0z m0-84l333 0 0-125c0-23 19-41 42-41l125 0 0-42-500 0 0 208z m-83-291l62 0c35 0 63-28 63-63 0-34-28-62-63-62l-21 0 0-84-41 0 0 209z m375 0l125 0 0-42-84 0 0-42 67 0 0-41-67 0 0-84-41 0 0 209z m-209-1l68 0c66 0 99-40 99-88l0-32c0-49-33-88-99-88l-68 0 0 208z m-125-41l0-42 21 0c12 0 21 10 21 21 0 12-9 21-21 21l-21 0z m167-1l0-124 26 0c26 0 57 8 57 46l0 32c0 38-31 46-57 46l-26 0z m-125-249l500 0 0-83-500 0 0 83z" horiz-adv-x="1000" />

<glyph glyph-name="png" unicode="&#xe81d;" d="M250 767c-46 0-83-38-83-84l0-208c-46 0-84-37-84-83l0-209c0-46 38-83 84-83l0-83c0-46 37-84 83-84l500 0c46 0 83 38 83 84l0 524a42 42 0 0 1-12 30l-184 184a42 42 0 0 1-29 12l-358 0z m0-84l333 0 0-125c0-23 19-41 42-41l125 0 0-42-500 0 0 208z m-83-291l62 0c35 0 63-28 63-63 0-34-28-62-63-62l-21 0 0-84-41 0 0 209z m291 0l42 0 0-209-48 0-77 136 0-136-42 0 0 208 48 0 77-135 0 136z m169 0c48 0 68-23 76-42l-78 0c-37 1-42-36-42-45l0-35c0-9 9-45 49-45 12 0 34 7 35 7l-1 35-41 0 1 41 82 0 0-99c-2-2-29-24-78-26-14 0-83-1-88 87l0 35c0 14-2 87 85 87z m-419-42l0-42 21 0c12 0 21 10 21 21 0 12-9 21-21 21l-21 0z m42-250l500 0 0-83-500 0 0 83z" horiz-adv-x="1000" />

<glyph glyph-name="export" unicode="&#xe81e;" d="M363 529l95 96v-400a42 42 0 0 1 84 0v400l95-96a42 42 0 0 1 59 0 42 42 0 0 1 0 59l-166 167a42 42 0 0 1-14 8 42 42 0 0 1-32 0 42 42 0 0 1-14-8l-166-167a42 42 0 1 1 59-59z m512-262a42 42 0 0 1-42-42v-167a42 42 0 0 0-41-41h-584a42 42 0 0 0-41 41v167a42 42 0 0 1-84 0v-167a125 125 0 0 1 125-125h584a125 125 0 0 1 125 125v167a42 42 0 0 1-42 42z" horiz-adv-x="1000" />

<glyph glyph-name="dashboard" unicode="&#xe81f;" d="M850 597c-13 14-34 16-50 5-58-40-351-240-383-272-46-45-46-120 0-165 23-23 53-35 83-35 30 0 60 12 83 35 31 31 232 324 272 383 10 15 8 36-5 49z m-322-377c-16-15-40-15-56 0-15 15-15 40 0 55 13 12 96 72 198 143-71-103-130-186-142-198z m-348-154l-48-24c-35 63-54 134-54 206 0 52 10 103 28 149l55-26c5-3 11-4 17-4 14 0 28 8 35 22 9 20 1 43-18 52l-55 26c68 111 185 188 321 201v-59c0-22 17-39 39-39 22 0 39 17 39 39v59c47-5 92-16 134-36 20-9 43 0 52 20 9 19 0 43-19 51-65 30-134 45-206 45-134 0-259-52-354-147-94-94-146-220-146-353 0-99 29-195 85-278 7-11 20-18 32-18 6 0 12 2 17 4l80 40c20 9 28 32 18 52-9 19-32 27-52 18z m776 387c-9 20-32 28-52 20-19-9-28-32-19-52 24-55 37-113 37-173 0-73-19-143-54-206l-50 24c-20 9-43 1-52-18-10-20-1-43 18-53l82-39c5-2 11-4 17-4 13 0 25 7 32 18 56 83 85 179 85 278 0 71-15 140-44 205z" horiz-adv-x="1000" />

<glyph glyph-name="ppt" unicode="&#xe820;" d="M250 767c-46 0-83-38-83-84l0-208c-46 0-84-37-84-83l0-209c0-46 38-83 84-83l0-83c0-46 37-84 83-84l500 0c46 0 83 38 83 84l0 524a42 42 0 0 1-12 30l-184 184a42 42 0 0 1-29 12l-358 0z m0-84l333 0 0-125c0-23 19-41 42-41l125 0 0-500-500 0 0 83 375 0c46 0 83 37 83 83l0 209c0 46-37 83-83 83l-375 0 0 208z m-83-291l62 0c35 0 63-28 63-63 0-34-28-62-63-62l-21 0 0-84-41 0 0 209z m166 0l63 0c34 0 62-28 62-63 0-34-28-62-62-62l-21 0 0-84-42 0 0 209z m167 0l125 0 0-42-42 0 0-167-41 0 0 167-42 0 0 42z m-292-42l0-42 21 0c12 0 21 10 21 21 0 12-9 21-21 21l-21 0z m167 0l0-42 21 0c11 0 21 10 21 21 0 12-10 21-21 21l-21 0z" horiz-adv-x="1000" />

<glyph glyph-name="diamond" unicode="&#xe821;" d="M961 650c-1 0-2 1-3 2l-163 155c-29 28-67 43-107 43h-170c0 0-1 0-1 0h-40c0 0-1 0-1 0h-163c-40 0-78-15-107-43l-164-155c-1-1-2-1-2-2-23-25-36-56-39-87-1-3-1-5-1-8 0-1 0-1 0-2-1-33 8-67 28-96l377-558c0-1 1-1 1-2 22-30 56-47 93-47 0 0 1 0 1 0 0 0 0 0 0 0s0 0 0 0c0 0 1 0 1 0 37 0 71 17 93 47 0 1 1 1 1 2l236 349c12 18 7 42-11 54-17 12-42 8-54-10l-199-295 130 519h219c-2-5-5-10-8-14 0 0 0-1 0-1l-32-47c-12-18-8-42 10-54 18-12 42-8 54 10l32 47c41 60 36 139-11 193z m-464 118l101-174h-199l98 174z m-400-171l163 154c14 13 33 21 53 21h97l-101-178h-214c1 1 1 2 2 3z m-5-96l0 0c-3 5-6 10-8 15h218l130-518-340 503z m408-451l-118 466h234l-116-466z m189 544l-104 178h103c20 0 39-8 53-22l162-153c1-1 2-2 2-3h-216z" horiz-adv-x="1000" />

<glyph glyph-name="psd" unicode="&#xe822;" d="M250 767c-46 0-83-38-83-84l0-208c-46 0-84-37-84-83l0-209c0-46 38-83 84-83l0-83c0-46 37-84 83-84l500 0c46 0 83 38 83 84l0 524a42 42 0 0 1-12 30l-184 184a42 42 0 0 1-29 12l-358 0z m0-84l333 0 0-125c0-23 19-41 42-41l125 0 0-42-500 0 0 208z m-83-291l62 0c35 0 63-28 63-63 0-34-28-62-63-62l-21 0 0-84-41 0 0 209z m228 0c60-2 63-54 63-63l-40 0c0 4 1 29-23 29-8 0-24-3-23-23 2-19 26-27 30-29 10-4 56-24 56-66 0-9-2-56-62-57-65 0-69 56-69 67l41 0c0-6 0-36 28-33 17 1 21 13 22 22 0 16-14 25-30 32-21 11-55 23-56 64-1 37 26 58 63 57z m105-1l68 0c66 0 99-40 99-88l0-32c0-49-33-88-100-88l-67 0 0 208z m-292-41l0-42 21 0c12 0 21 10 21 21 0 12-9 21-21 21l-21 0z m334-1l0-124 25 0c27 0 58 8 58 46l0 32c0 38-31 46-57 46l-26 0z m-292-249l500 0 0-83-500 0 0 83z" horiz-adv-x="1000" />

<glyph glyph-name="xls" unicode="&#xe823;" d="M250 767c-46 0-83-38-83-84l0-208c-46 0-84-37-84-83l0-209c0-46 38-83 84-83l0-83c0-46 37-84 83-84l500 0c46 0 83 38 83 84l0 524a42 42 0 0 1-12 30l-184 184a42 42 0 0 1-29 12l-358 0z m0-84l333 0 0-125c0-23 19-41 42-41l125 0 0-42-500 0 0 208z m-82-291l52 0 30-72 30 72 52 0-53-104 54-105-52 0-31 73-31-73-52 0 54 105-53 104z m207 0l42 0 0-167 83 0 0-42-125 0 0 209z m229 0c59-2 63-54 63-63l-41 0c0 4 1 29-23 29-7 0-24-3-22-23 1-19 25-27 30-29 9-4 55-24 56-66 0-9-3-56-62-57-65 0-70 56-70 67l41 0c0-6 0-36 29-33 17 1 20 13 21 22 1 16-14 25-29 32-22 11-56 23-57 64 0 37 27 58 64 57z m-354-292l500 0 0-83-500 0 0 83z" horiz-adv-x="1000" />

<glyph glyph-name="dislike" unicode="&#xe824;" d="M1000 448c0 27-10 54-28 75-5 5-10 10-16 14 9 17 15 36 15 55 0 43-24 79-59 98 6 14 10 30 10 46 0 66-47 114-112 114h-382c-22 0-39-17-39-39s17-39 39-39h382c31 0 34-25 34-36 0-16-14-25-18-28-22-12-25-29-25-38 0-25 21-45 49-45h8c19 0 34-14 34-33 0-11-6-22-16-28-1-1-2-1-2-1-18-10-26-23-26-40 0-15 10-40 46-42 15-1 28-16 28-33 0-15-11-29-25-33-24-5-40-24-40-45 0-11 4-27 23-40 9-6 15-16 15-27 0-18-15-33-34-33h-257c-59 0-125-42-128-111l0-1c0-24 18-60 60-144 6-13 12-25 18-36 1-4 1-7 1-11 0-21-17-39-39-39-10 0-19 4-26 10l-20 28-196 305c12 18 19 40 19 63v399c0 64-53 117-117 117h-59c-64 0-117-53-117-117v-399c0-64 53-117 117-117h59c13 0 25 2 36 6l193-300 25-36 2-2c23-23 52-35 84-35 65 0 117 53 117 117 0 13-2 26-6 38l-1 3-1 2c-6 12-13 25-20 39-17 35-46 93-50 110 3 20 30 33 49 33h257c62 0 112 50 112 111 0 20-6 40-16 57 27 20 43 52 43 88z m-785-114c0-21-18-39-39-39h-59c-21 0-39 18-39 39v399c0 21 18 39 39 39h59c21 0 39-18 39-39v-399z" horiz-adv-x="1000" />

<glyph glyph-name="downarrow-2" unicode="&#xe825;" d="M989 591c-16 16-40 16-56 1l-405-405c-16-16-40-16-56 0l-405 405c-16 15-40 15-56-1-15-15-15-40 1-55l405-405c23-22 53-34 83-34 30 0 60 12 83 34l406 405c15 15 15 40 0 55z" horiz-adv-x="1000" />

<glyph glyph-name="downarrow-3" unicode="&#xe826;" d="M926 282c-15 15-40 15-55 0l-343-343c-16-15-40-15-56 1l-343 342c-15 15-40 15-55 0-15-15-15-40 0-55l343-343c23-23 53-34 83-34 30 0 60 11 83 34l343 343c15 15 15 40 0 55z m-426 568c-22 0-39-17-39-39v-707c0-22 17-39 39-39s39 17 39 39v707c0 22-17 39-39 39z" horiz-adv-x="1000" />

<glyph glyph-name="downarrow" unicode="&#xe827;" d="M966 624c-22 22-52 35-83 35h-766c-31 0-61-13-83-35-45-45-45-120 0-165l383-383c23-23 53-35 83-35 30 0 60 12 83 35l251 252c16 16 16 40 0 56-15 15-40 15-55-1l-251-252c-16-15-40-15-56 0l-382 383c-16 15-16 40 0 55 7 7 17 12 27 12h766c10 0 20-5 28-12 15-15 15-40 0-55-16-15-16-40 0-55 15-16 40-16 55 0 45 45 45 120 0 165z" horiz-adv-x="1000" />

<glyph glyph-name="skype" unicode="&#xe828;" d="M893 260a399 399 0 0 1 9 85 395 395 0 0 1-398 392 380 380 0 0 1-67-6 231 231 0 0 1-354-192 226 226 0 0 1 32-115 418 418 0 0 1-8-78 389 389 0 0 1 397-386 357 357 0 0 1 73 7 233 233 0 0 1 109-34 226 226 0 0 1 207 327z m-208-76a151 151 0 0 0-68-51 264 264 0 0 0-105-19 259 259 0 0 0-120 26 156 156 0 0 0-55 49 107 107 0 0 0-21 58 37 37 0 0 0 13 29 45 45 0 0 0 32 12 39 39 0 0 0 27-9 75 75 0 0 0 18-28 142 142 0 0 1 21-36 75 75 0 0 1 30-23 126 126 0 0 1 52-10 122 122 0 0 1 72 18 56 56 0 0 1 28 47 47 47 0 0 1-15 37 91 91 0 0 1-39 21c-15 5-37 10-63 16a583 583 0 0 0-90 27 140 140 0 0 0-57 42 103 103 0 0 0-20 66 110 110 0 0 0 22 66 142 142 0 0 0 64 45 277 277 0 0 0 99 16 267 267 0 0 0 79-11 170 170 0 0 0 55-27 122 122 0 0 0 32-36 75 75 0 0 0 10-37 40 40 0 0 0-13-29 41 41 0 0 0-31-13 41 41 0 0 0-27 8 99 99 0 0 0-19 25 122 122 0 0 1-33 41 99 99 0 0 1-60 14 113 113 0 0 1-63-15 45 45 0 0 1-24-38 40 40 0 0 1 8-23 59 59 0 0 1 23-17 112 112 0 0 1 28-11c10-3 26-7 48-11 28-6 53-13 76-20a226 226 0 0 0 58-27 119 119 0 0 0 37-39 118 118 0 0 0 14-58 120 120 0 0 0-23-75z" horiz-adv-x="1000" />

<glyph glyph-name="reply" unicode="&#xe829;" d="M900 10q-86 152-208 197t-330 45l0-218-362 334 362 322 0-192q90 0 168-27t131-70 96-95 69-104 44-95 24-69z" horiz-adv-x="900" />

<glyph glyph-name="edit" unicode="&#xe82a;" d="M941 791c-37 38-88 59-141 59-53 0-104-21-142-59l-559-559c-4-4-8-10-10-17l-88-316c-3-13 1-28 11-38 7-7 17-11 27-11 4 0 7 0 11 1l315 90c14 4 24 14 27 28 4 13 0 27-10 37l-199 200 464 463 172-172-355-354c-15-15-15-40 0-55 16-15 40-15 56 0l421 420c38 38 59 89 59 142 0 53-21 104-59 141z m-661-793l-185-52 52 186 133-134z m606 566l-11-12-173 173 12 11c23 23 53 36 86 36 33 0 63-13 86-36 23-23 36-53 36-86 0-33-13-63-36-86z" horiz-adv-x="1000" />

<glyph glyph-name="eraser-1" unicode="&#xe82f;" d="M961-72h-504l367 361c16 15 16 40 1 55-15 16-40 16-55 1l-98-96-274 273 228 227c30 31 80 31 110 0l163-163c31-30 31-80 0-110-15-16-15-40 0-56 15-15 40-15 55 0 61 61 61 160 0 221l-163 163c-61 61-160 61-221 0l-524-525c-30-29-46-69-46-110 0-42 16-81 46-111l157-162c0 0 0 0 0-1 30-29 68-45 110-45 0 0 0 0 1 0 2 0 4 0 5 0 1 0 2 0 3 0h639c22 0 39 17 39 39 0 22-17 39-39 39z m-702 23l-158 162c0 0 0 0 0 0-15 15-23 35-23 56 0 21 8 40 23 55l242 242 273-272-248-244c-30-29-79-29-109 1z" horiz-adv-x="1000" />

<glyph glyph-name="reply-all" unicode="&#xe831;" d="M362 556l-212-188 212-196 0-138-362 334 362 322 0-134z m250-58q104 0 182-50t115-122 60-144 27-122l4-50q-86 154-168 198t-220 44l0-218-362 334 362 322 0-192z" horiz-adv-x="1000" />

<glyph glyph-name="exposure-alt" unicode="&#xe832;" d="M458 600h-166a42 42 0 0 1 0-83h166a42 42 0 0 1 0 83z m334 167h-584a125 125 0 0 1-125-125v-584a125 125 0 0 1 125-125h584a125 125 0 0 1 125 125v584a125 125 0 0 1-125 125z m-625-692v567a42 42 0 0 0 41 41h567z m666-17a42 42 0 0 0-41-41h-567l608 608z m-291 84h41v-42a42 42 0 0 1 84 0v42h41a42 42 0 0 1 0 83h-41v42a42 42 0 0 1-84 0v-42h-41a42 42 0 0 1 0-83z" horiz-adv-x="1000" />

<glyph glyph-name="file" unicode="&#xe834;" d="M857 163c22 0 39 17 39 39v492c0 86-70 156-156 156h-480c-86 0-156-70-156-156v-688c0-86 70-156 156-156h480c86 0 156 70 156 156 0 22-17 39-39 39-21 0-39-17-39-39 0-43-35-78-78-78h-480c-43 0-78 35-78 78v688c0 43 35 78 78 78h480c43 0 78-35 78-78v-492c0-22 18-39 39-39z m-156 453h-402c-22 0-39-18-39-39s17-39 39-39h402c22 0 39 17 39 39s-17 39-39 39z m0-157h-402c-22 0-39-17-39-39s17-39 39-39h402c22 0 39 18 39 39s-17 39-39 39z m-158-156h-244c-22 0-39-17-39-39 0-21 17-39 39-39h244c22 0 39 18 39 39 0 22-17 39-39 39z" horiz-adv-x="1000" />

<glyph glyph-name="filter" unicode="&#xe835;" d="M961 850h-922c-21 0-39-18-39-39 0-152 45-284 141-417 60-83 168-144 222-172v-237c0-15 9-29 22-35l196-96c5-3 11-4 17-4 7 0 14 2 20 6 12 7 19 20 19 33v161c0 22-18 39-39 39-22 0-39-17-39-39v-98l-118 57v238c0 15-8 29-22 35-73 34-168 93-215 158-77 107-118 213-125 332h842c-7-119-48-225-125-332-50-69-143-129-213-158-20-9-30-31-21-51 8-20 31-30 51-21 74 30 184 97 246 184 96 133 141 265 141 417 0 21-17 39-39 39z" horiz-adv-x="1000" />

<glyph glyph-name="flag" unicode="&#xe837;" d="M967 337l-198 176 196 165c1 0 1 0 1 0 31 27 42 69 28 108-14 39-50 64-92 64h-746c-86 0-156-70-156-156v-805c0-22 18-39 39-39s39 17 39 39v805c0 43 35 78 78 78h746c13 0 17-9 19-13 1-4 3-13-6-21l-231-194c-9-8-14-18-14-30 0-11 5-22 13-30l232-205c9-8 7-18 6-22-2-4-7-12-19-12h-668c-21 0-39-18-39-39 0-22 18-40 39-40h668c41 0 77 25 92 63 14 39 4 81-27 108z" horiz-adv-x="1000" />

<glyph glyph-name="folder" unicode="&#xe838;" d="M0 48c0 0 0 0 0 0l0 0z m78 604c0 0 0 0 0 0 0 0 0 0 0 0z m883-447c22 0 39 17 39 39v326c0 31-12 61-34 83-22 22-52 34-83 34h0l-426 0c-16 69-78 121-152 121l-149 0c-86 0-156-70-156-156v-604c0-86 70-156 156-156h688c86 0 156 70 156 156 0 22-17 39-39 39-22 0-39-17-39-39 0-43-35-78-78-78h-688c-43 0-78 35-78 78v604c0 0 0 0 0 0 0 43 35 78 78 78l149 0c43 0 78-35 78-78v-4c0-22 17-39 39-39l461 0c10 0 20-4 27-12 8-7 12-17 12-27v-326c0-22 17-39 39-39z" horiz-adv-x="1000" />

<glyph glyph-name="followers" unicode="&#xe839;" d="M457-70h-339c-13 0-24 6-32 16-7 10-9 23-5 35 38 120 156 203 286 203 60 0 118-18 167-52 18-13 42-8 55 9 12 18 8 42-10 55-24 17-51 31-78 41 36 33 61 79 65 131 55 54 127 83 204 83 61 0 119-18 168-52 18-13 42-8 54 9 12 18 8 42-9 55-25 17-51 30-78 41 40 36 65 89 65 147 0 110-89 199-199 199-110 0-199-89-199-199 0-58 25-110 65-146-5-3-11-5-16-7-25-11-48-24-69-40-29 73-101 125-184 125-110 0-199-89-199-199 0-57 25-110 64-146-106-40-191-125-226-233-12-36-6-75 16-105 23-31 57-48 95-48h339c22 0 39 17 39 39s-17 39-39 39z m314 842c67 0 121-54 121-121s-54-121-121-121c-67 0-121 55-121 121s54 121 121 121z m-403-267c66 0 120-54 120-121s-54-121-120-121-121 55-121 121 54 121 121 121z m615-292c-18 13-42 9-55-9l-192-268c-5-6-12-8-15-8-4 0-11 0-17 6l-124 120c-16 14-40 14-55-2-15-15-15-40 1-55l124-119c19-18 44-28 70-28 2 0 4 0 6 0 28 2 54 16 72 37 0 1 1 2 1 2l193 270c12 17 8 42-9 54z" horiz-adv-x="1000" />

<glyph glyph-name="instagram" unicode="&#xe83c;" d="M723 623h0a50 50 0 1 1 50-50 50 50 0 0 1-50 50z m191-101a316 316 0 0 1-19 101 206 206 0 0 1-48 74 196 196 0 0 1-74 48 304 304 0 0 1-101 19c-44 3-59 3-172 3s-127 0-172-3a304 304 0 0 1-101-19 199 199 0 0 1-74-48 196 196 0 0 1-48-74 304 304 0 0 1-19-101c-3-44-3-59-3-172s0-127 3-172a304 304 0 0 1 19-101 196 196 0 0 1 48-74 199 199 0 0 1 74-48 304 304 0 0 1 101-19c45-3 59-3 172-3s128 0 172 3a304 304 0 0 1 101 19 196 196 0 0 1 74 48 202 202 0 0 1 48 74 316 316 0 0 1 19 101c0 45 3 59 3 172s0 128-3 172z m-75-339a234 234 0 0 0-14-77 128 128 0 0 0-31-48 133 133 0 0 0-48-31 234 234 0 0 0-78-14c-41-3-57-3-166-3s-125 0-167 3a239 239 0 0 0-81 12 136 136 0 0 0-46 31 125 125 0 0 0-30 48 231 231 0 0 0-17 79c0 42-3 57-3 167s0 125 3 167a231 231 0 0 0 14 79 125 125 0 0 0 33 46 131 131 0 0 0 46 33 239 239 0 0 0 79 14c42 0 57 3 167 3s125 0 167-3a234 234 0 0 0 77-14 128 128 0 0 0 50-33 128 128 0 0 0 31-46 234 234 0 0 0 14-79c2-42 3-57 3-167s-1-125-3-167z m-339 381a214 214 0 1 1 214-214 213 213 0 0 1-214 214z m0-353a139 139 0 1 0 139 139 139 139 0 0 0-139-139z" horiz-adv-x="1000" />

<glyph glyph-name="home" unicode="&#xe83e;" d="M989 388l-407 410c-1 1-1 1-2 2-44 39-112 40-156 0-1-1-1-1-2-2l-410-410c-16-15-16-40-1-55 16-15 40-15 56 0l31 31v-337c0-86 70-157 156-157h141c21 0 39 18 39 40v318h136v-318c0-22 18-40 39-40h137c86 0 156 71 156 157 0 21-17 39-39 39-21 0-39-18-39-39 0-43-35-78-78-78h-98v318c0 22-17 39-39 39h-214c-22 0-39-17-39-39v-318h-102c-43 0-78 35-78 78v414c0 0 0 1 0 1l301 300c14 13 36 13 50 0l297-299v-221c0-21 18-39 39-39 22 0 39 18 39 39v142l31-31c8-7 18-11 28-11 10 0 20 3 28 11 15 15 15 40 0 55z" horiz-adv-x="1000" />

<glyph glyph-name="exposure-increase" unicode="&#xe83f;" d="M458 558h-41v42a42 42 0 0 1-84 0v-42h-41a42 42 0 0 1 0-83h41v-42a42 42 0 0 1 84 0v42h41a42 42 0 0 1 0 83z m84-458h166a42 42 0 0 1 0 83h-166a42 42 0 0 1 0-83z m250 667h-584a125 125 0 0 1-125-125v-584a125 125 0 0 1 125-125h584a125 125 0 0 1 125 125v584a125 125 0 0 1-125 125z m-625-692v567a42 42 0 0 0 41 41h567z m666-17a42 42 0 0 0-41-41h-567l608 608z" horiz-adv-x="1000" />

<glyph glyph-name="idea" unicode="&#xe840;" d="M770 740c-71 71-166 110-266 110-1 0-2 0-3 0-1 0-2 0-2 0-102 0-197-39-269-111-72-71-112-166-112-266 0-152 87-233 150-292 44-41 71-68 71-99v-115c0-64 52-117 117-117h88c65 0 117 53 117 117v119c0 2 0 3 0 5 4 23 23 45 56 77 16 15 16 39 2 55-15 16-40 16-56 1-32-30-62-61-74-101h-51v332l39 39 51-50c7-8 17-12 27-12 10 0 20 4 28 12 15 15 15 40 0 55l-78 78c-15 15-40 15-55 0l-51-51-50 51c-16 15-40 15-56 0l-78-78c-15-15-15-40 0-55 15-16 40-16 55 0l51 50 39-39v-332h-49c-15 45-51 79-89 115-62 57-126 117-126 235 0 79 32 154 89 211 57 57 133 88 214 88 0 0 1 0 2 0 0 0 0 0 0 0 1 0 2 0 3 0 80 0 155-31 211-87 55-55 87-127 89-204-1-3-1-6-1-8 0-46-9-85-28-120-10-20-3-43 16-53 20-10 43-3 53 16 24 45 36 93 37 147 1 3 1 6 1 10 0 101-40 196-112 267z m-353-695h166v-78c0-21-17-39-39-39h-88c-21 0-39 18-39 39v78z" horiz-adv-x="1000" />

<glyph glyph-name="java-script" unicode="&#xe842;" d="M603 230a169 169 0 0 0-91 17 60 60 0 0 0-22 42 9 9 0 0 1-10 9c-13 0-26 0-39 0a9 9 0 0 1-10-8 97 97 0 0 1 32-77 166 166 0 0 1 92-35 336 336 0 0 1 106 5 130 130 0 0 1 70 37 97 97 0 0 1 16 93 78 78 0 0 1-51 46c-53 19-111 17-165 31-10 3-21 7-25 17a36 36 0 0 0 11 39 107 107 0 0 0 57 14 170 170 0 0 0 78-11 60 60 0 0 0 29-41 10 10 0 0 1 9-10c13 0 26 0 39 0a10 10 0 0 1 11 7 101 101 0 0 1-50 88 245 245 0 0 1-134 20v0a146 146 0 0 1-90-36 91 91 0 0 1-19-94 80 80 0 0 1 51-45c53-19 112-13 165-30 11-3 23-9 26-20a41 41 0 0 0-11-40 124 124 0 0 0-75-18z m243 352q-156 88-312 176a70 70 0 0 1-68 0q-155-88-311-175a64 64 0 0 1-33-56v-354a65 65 0 0 1 35-56c29-16 58-34 89-49a128 128 0 0 1 114-3 89 89 0 0 1 41 80c0 116 0 233 0 349a9 9 0 0 1-8 11c-14 0-27 0-40 0a9 9 0 0 1-10-9c0-116 0-231 0-347a39 39 0 0 0-25-37 64 64 0 0 0-52 7q-41 23-82 46a10 10 0 0 0-6 10q0 175 0 350a11 11 0 0 0 7 11q154 87 309 174a11 11 0 0 0 12 0q155-87 310-174a11 11 0 0 0 6-11q0-175 0-350a10 10 0 0 0-6-10q-152-86-304-172c-5-2-11-7-17-4-26 16-53 31-79 47a9 9 0 0 1-10 0 217 217 0 0 0-36-17c-6-2-13-3-17-8a55 55 0 0 1 18-13q46-27 93-54a68 68 0 0 1 69-2q155 87 310 175a65 65 0 0 1 35 56v354a64 64 0 0 1-32 55z" horiz-adv-x="1000" />

<glyph glyph-name="justify" unicode="&#xe844;" d="M961 620h-922c-21 0-39-18-39-39s18-40 39-40h922c22 0 39 18 39 40 0 21-17 39-39 39z m0 230h-922c-21 0-39-17-39-39s18-39 39-39h922c22 0 39 17 39 39s-17 39-39 39z m-266-922h-656c-21 0-39-17-39-39 0-22 18-39 39-39h656c22 0 39 17 39 39 0 22-17 39-39 39z m266 231h-922c-21 0-39-18-39-39 0-22 18-39 39-39h922c22 0 39 17 39 39 0 21-17 39-39 39z m0 230h-922c-21 0-39-17-39-39 0-22 18-39 39-39h922c22 0 39 17 39 39s-17 39-39 39z" horiz-adv-x="1000" />

<glyph glyph-name="leaf" unicode="&#xe846;" d="M1000 808c0 0 0 1 0 1 1 22-16 40-38 41-4 0-117 4-263-24-85-16-165-40-236-71-89-39-165-90-226-150-96-96-144-199-143-306 0-96 40-171 64-215 2-5 4-10 7-14l-153-153c-16-16-16-40 0-56 7-7 17-11 27-11 10 0 20 4 28 11l631 631c15 15 15 40 0 55-16 16-40 16-56 0l-419-419c-22 40-51 99-51 171-1 87 39 169 120 251 122 121 296 175 420 199 89 17 166 22 209 23-2-110-27-436-221-630-82-81-164-121-251-120-23 0-48 3-72 10-21 5-42-7-48-28-5-21 8-43 28-48 31-8 62-12 92-12 1 0 1 0 2 0 106 0 209 48 304 143 60 61 111 137 150 226 31 71 55 150 71 236 25 131 24 236 24 259z" horiz-adv-x="1000" />

<glyph glyph-name="leftarrow-2" unicode="&#xe848;" d="M770 123c21 0 39 18 39 40v570c0 31-13 61-35 83-45 45-120 45-165 0l-383-383c-46-46-46-120 0-166l383-383c22-23 52-34 82-34s60 11 83 34c22 22 35 52 35 83 0 22-18 39-39 39-22 0-39-17-39-39 0-10-5-20-12-28-15-15-40-15-55 0l-383 383c-15 16-15 40 0 56l383 383c15 15 40 15 55 0 7-8 12-18 12-28v-570c0-22 17-40 39-40z" horiz-adv-x="1000" />

<glyph glyph-name="leftarrow-3" unicode="&#xe849;" d="M742-83l-405 405c-16 16-16 40 0 56l405 405c15 16 15 40-1 56-15 15-40 15-55 0l-405-406c-45-46-45-120 0-166l405-406c8-7 18-11 28-11 10 0 20 4 27 11 16 16 16 40 1 56z" horiz-adv-x="1000" />

<glyph glyph-name="leftarrow" unicode="&#xe84a;" d="M90 322c-16 16-16 40 0 56l342 343c15 15 15 40 0 55-15 15-40 15-55 0l-343-343c-45-46-45-120 0-166l343-343c7-8 17-12 27-12 10 0 20 4 28 12 15 15 15 40 0 55l-342 343z m871 67h-709c-22 0-39-17-39-39s17-39 39-39h709c22 0 39 17 39 39s-17 39-39 39z" horiz-adv-x="1000" />

<glyph glyph-name="like" unicode="&#xe84b;" d="M883 483h-59c-12 0-25-2-36-6l-193 300-25 36-2 2c-23 23-52 35-84 35-65 0-117-53-117-117 0-13 2-26 6-38l1-3 1-2c6-12 13-25 20-39 17-35 46-93 50-110-2-20-30-33-49-33h-257c-62 0-112-50-112-111 0-20 6-40 16-57-26-20-43-52-43-88 0-27 10-54 28-75 5-5 11-10 16-14-9-17-15-36-15-55 0-42 24-79 60-98-7-14-11-30-11-46 0-66 47-114 112-114h382c22 0 39 17 39 39 0 22-17 39-39 39h-382c-30 0-34 25-34 36 0 16 14 25 18 28 22 12 25 29 25 38 0 25-21 45-49 45h-8c-19 0-34 15-34 33 0 12 6 22 17 29 0 0 1 0 1 1 18 9 26 22 26 39 0 15-9 41-46 43-15 0-28 15-28 32 0 15 11 29 25 33 24 6 40 24 40 46 0 10-4 26-23 39-9 6-14 16-14 27 0 18 14 33 33 33h257c59 0 125 42 128 111l0 1c0 24-17 60-60 144-6 13-12 25-18 36-1 4-1 7-1 11 0 21 17 39 39 39 10 0 19-4 26-10l20-28 196-305c-12-18-19-40-19-63v-399c0-64 53-117 117-117h59c64 0 117 53 117 117v399c0 64-53 117-117 117z m39-516c0-21-18-39-39-39h-59c-21 0-39 18-39 39v399c0 21 18 39 39 39h59c21 0 39-18 39-39v-399z" horiz-adv-x="1000" />

<glyph glyph-name="link" unicode="&#xe84c;" d="M927 776c-9 9-19 18-28 25l-2 2c-1 1-3 2-4 3-40 29-83 44-129 44-73 0-147-37-217-106-1-1-2-2-2-2l-3-4-4-3c-1-1-1-1-2-2-69-70-106-145-106-217 0-31 7-61 21-91 1-2 2-3 3-4 3-5 13-21 25-37l-161-161c-15-15-15-40 0-55 8-7 18-11 28-11s20 4 27 11l94 94c4-7 8-14 12-21 9-19 13-38 13-57 0-51-28-106-82-161l-5-4c-1-1-3-2-4-4l-4-4c-54-54-110-83-160-83-29 0-56 9-81 27-1 1-2 1-2 2l-5 4c-7 5-14 11-21 18-33 33-50 69-50 108 0 50 29 106 83 160l4 4c2 1 3 3 4 4l4 5c52 51 104 79 152 82 21 2 38 20 36 42-1 21-20 38-41 36-68-4-136-40-203-106-1-1-1-1-2-2l-3-4-3-3c-1 0-2-1-3-2-69-69-106-144-106-216 0-60 25-115 73-163 9-9 19-18 29-25l1-2c2-1 3-2 4-3 40-29 83-44 130-44 72 0 147 37 216 106 1 1 2 2 2 2l3 4 4 3c1 1 1 1 2 2 70 70 106 145 106 217 0 31-7 61-21 91 0 0 0 1 0 1-3 5-13 25-25 43l158 158c15 15 15 40 0 55-15 15-40 15-55 0l-92-92c-5 7-10 15-14 21-9 18-13 37-13 55 0 51 28 106 82 161l5 4c1 1 3 2 4 4l4 4c54 54 110 83 161 83 28 0 55-9 80-27 1-1 2-1 2-2l5-4c7-5 14-11 21-18 33-33 50-69 50-107 0-51-29-107-83-161l-4-4c-2-1-3-3-4-4l-4-5c-50-49-103-77-154-80-21-2-37-20-36-42 1-20 18-36 39-36 1 0 1 0 2 0 70 4 141 40 205 104 1 1 1 1 2 2l3 4 4 3c0 0 1 1 2 2 69 69 106 144 106 217 0 59-24 114-73 162z" horiz-adv-x="1000" />

<glyph glyph-name="loading" unicode="&#xe84d;" d="M989 296c-15 15-40 15-55 0l-90-89v143c0 113-44 219-124 298-79 80-185 124-298 124-69 0-138-17-198-49 0 0 0-1 0-1-1 0-1 0-1 0 0 0 0 0 0 0 0 0-1 0-1 0 0-1-1-1-1-1 0 0 0 0 0 0-2-1-5-2-7-4 0 0 0 0 0 0-10-5-19-11-27-17-18-12-23-36-11-54 8-11 20-17 33-17 7 0 15 2 21 6 10 7 20 13 30 18 50 27 105 41 162 41 189 0 344-154 344-344v-144l-90 88c-16 15-40 15-55-1-16-15-15-40 0-55l101-99c23-22 53-33 82-33 30 0 60 11 83 34l101 100c16 15 16 40 1 56z m-947 116c-21 2-40-15-41-36-1-9-1-17-1-26 0-6 0-11 0-17 1-21 19-38 39-38 1 0 1 0 2 0 22 1 38 19 37 41 0 5 0 9 0 14 0 7 0 14 1 21 1 22-15 40-37 41z m87-242c-6 10-12 20-17 31-9 19-33 27-52 18-19-9-28-33-18-52 6-13 13-26 20-38 8-12 21-18 34-18 7 0 14 1 20 5 19 12 24 36 13 54z m293-164c-12 0-24 1-35 2-22 2-41-14-43-35-2-21 14-41 35-43 14-1 29-2 43-2h0c22 0 39 18 39 39 0 22-18 39-39 39z m-168 44c-10 6-20 12-30 19-17 12-42 8-54-10-12-17-8-42 10-54 11-9 23-16 36-23 6-4 13-5 19-5 14 0 27 7 34 20 11 19 4 42-15 53z m-133 540c-18 12-42 6-54-12-8-12-15-24-21-37-10-19-3-43 17-53 5-3 11-4 17-4 15 0 28 8 35 22 6 10 11 20 18 30 11 18 6 42-12 54z" horiz-adv-x="1000" />

<glyph glyph-name="login" unicode="&#xe84e;" d="M844 850h-688c-86 0-156-70-156-156v-78c0-22 18-39 39-39s39 17 39 39v78c0 43 35 78 78 78h688c43 0 78-35 78-78v-688c0-43-35-78-78-78h-688c-43 0-78 35-78 78v78c0 22-17 39-39 39s-39-17-39-39v-78c0-86 70-156 156-156h688c86 0 156 70 156 156v688c0 86-70 156-156 156z m-188-417l-146 146c-15 15-40 15-55 0-15-15-15-40 0-55l146-146c15-16 15-40 0-56 0 0 0 0 0 0l-146-148c-15-15-15-40 0-55 8-7 18-11 27-11 11 0 21 4 28 11l146 148c46 46 46 120 0 166z m-201-44h-416c-21 0-39-17-39-39 0-22 18-39 39-39h416c22 0 39 17 39 39s-17 39-39 39z" horiz-adv-x="1000" />

<glyph glyph-name="logout" unicode="&#xe84f;" d="M844 850h-688c-86 0-156-70-156-156v-39c0-22 18-39 39-39s39 17 39 39v39c0 43 35 78 78 78h688c43 0 78-35 78-78v-688c0-43-35-78-78-78h-688c-43 0-78 35-78 78v39c0 22-17 39-39 39s-39-17-39-39v-39c0-86 70-156 156-156h688c86 0 156 70 156 156v688c0 86-70 156-156 156z m-754-528c0 0 0 0 0 0-16 16-16 40 0 56l145 146c15 15 15 40 0 55-16 15-40 15-56 0l-145-146c-45-46-45-120 0-166l145-147c8-8 18-12 28-12 10 0 20 4 27 11 16 15 16 40 1 55l-145 148z m560 67h-416c-21 0-39-17-39-39 0-22 18-39 39-39h416c22 0 40 17 40 39s-18 39-40 39z" horiz-adv-x="1000" />

<glyph glyph-name="medal" unicode="&#xe850;" d="M945 794c6 12 5 26-2 38s-20 18-33 18h-253c-15 0-29-8-35-22l-156-315c-58-6-111-27-156-58l-157 317h166l63-127c9-19 33-27 52-18 19 10 27 33 18 53l-74 148c-6 14-20 22-35 22h-253c-13 0-26-7-33-18-7-12-8-26-2-38l193-391c1-1 1-1 1-2-51-58-82-135-82-219 0-183 149-332 332-332 61 0 120 17 172 48 19 12 25 36 13 54-11 18-35 24-53 13-40-24-86-37-132-37-140 0-254 114-254 254s114 254 254 254 254-114 254-254c0-33-7-66-19-96-9-20 1-43 21-51 20-9 43 1 51 21 16 40 25 82 25 126 0 83-31 159-81 217 0 2 1 3 2 4l193 391z m-255-340c-41 28-88 48-138 56l129 262h166l-157-318z m-189-413c21 0 39 18 39 40v199c0 21-18 39-39 39h-69c-21 0-39-18-39-39 0-22 18-39 39-39h30v-160c0-22 17-40 39-40z" horiz-adv-x="1000" />

<glyph glyph-name="megaphone" unicode="&#xe851;" d="M961 299c22 0 39 18 39 39v395c0 38-19 74-50 96-31 22-71 27-107 14-1 0-2-1-3-1l-313-145c-69-32-142-48-218-49l-153-1c-86 0-156-70-156-156v-102c0-69 46-128 109-149v-271c0-32 13-63 36-85 22-22 51-34 82-34 0 0 1 0 2 0 31 1 60 13 81 35 22 22 34 51 34 82v266c66-5 131-22 190-51l305-147c1-1 3-2 4-2 36-13 76-8 107 14 31 22 50 58 50 96 0 22-17 39-39 39-22 0-39-17-39-39 0-13-6-24-17-32-10-7-22-9-34-5l-303 146c-70 34-147 55-224 60v259c75 5 147 23 216 55l311 144c12 4 24 2 34-5 11-8 17-19 17-32v-395c0-21 17-39 39-39z m-695-332c0-21-17-38-39-39-10 0-19 4-27 11-8 8-12 19-12 30v304c0 20-16 37-37 39-41 2-73 37-73 77v102c0 43 35 78 78 78h1l109 1v-603z" horiz-adv-x="1000" />

<glyph glyph-name="menu-2" unicode="&#xe852;" d="M856 850h-711c-80 0-145-65-145-144s65-145 145-145h711c79 0 144 65 144 145s-65 144-144 144z m0-211h-711c-37 0-67 30-67 67s30 66 67 66h711c36 0 66-30 66-66s-30-67-66-67z m0-144h-711c-80 0-145-65-145-145s65-144 145-144h711c79 0 144 64 144 144s-65 145-144 145z m0-211h-711c-37 0-67 29-67 66s30 66 67 66h711c36 0 66-29 66-66s-30-66-66-66z m0-145h-711c-80 0-145-65-145-145s65-144 145-144h515c22 0 39 17 39 39 0 22-17 39-39 39h-515c-37 0-67 30-67 66s30 67 67 67h711c36 0 66-30 66-67s-30-66-66-66c-22 0-40-17-40-39 0-22 18-39 40-39 79 0 144 65 144 144s-65 145-144 145z" horiz-adv-x="1000" />

<glyph glyph-name="menu" unicode="&#xe853;" d="M844 850h-149c-86 0-156-70-156-156v-149c0-86 70-156 156-156h149c86 0 156 70 156 156v149c0 86-70 156-156 156z m78-305c0-43-35-78-78-78h-149c-43 0-78 35-78 78v149c0 43 35 78 78 78h149c43 0 78-35 78-78v-149z m-617 305h-149c-86 0-156-70-156-156v-149c0-86 70-156 156-156h149c86 0 156 70 156 156v149c0 86-70 156-156 156z m78-305c0-43-35-78-78-78h-149c-43 0-78 35-78 78v149c0 43 35 78 78 78h149c43 0 78-35 78-78v-149z m-78-234h-149c-86 0-156-70-156-156v-149c0-86 70-156 156-156h149c86 0 156 70 156 156v149c0 86-70 156-156 156z m78-305c0-43-35-78-78-78h-149c-43 0-78 35-78 78v149c0 43 35 78 78 78h149c43 0 78-35 78-78v-149z m578 39c-22 0-39-17-39-39 0-43-35-78-78-78h-149c-43 0-78 35-78 78v149c0 43 35 78 78 78h149c31 0 59-19 71-47 9-20 32-29 52-20 20 8 29 32 20 51-25 57-81 94-143 94h-149c-86 0-156-70-156-156v-149c0-86 70-156 156-156h149c86 0 156 70 156 156 0 22-17 39-39 39z" horiz-adv-x="1000" />

<glyph glyph-name="minus" unicode="&#xe856;" d="M961 389h-922c-21 0-39-17-39-39 0-22 18-39 39-39h922c22 0 39 17 39 39s-17 39-39 39z" horiz-adv-x="1000" />

<glyph glyph-name="paste" unicode="&#xe861;" d="M940 125c21 0 39 18 39 40v179c0 65-53 117-118 117h-76v155c0 86-70 156-156 156h-93c-15 46-58 78-108 78h-50c-49 0-92-32-107-78h-93c-86 0-156-70-156-156v-610c0-86 70-156 156-156h172c21 0 39 17 39 39 0 22-18 39-39 39h-172c-43 0-78 35-78 78v610c0 43 35 78 78 78h4v-115c0-22 17-39 39-39h369c21 0 39 17 39 39v115c43 0 78-35 78-78v-155h-127c-64 0-117-52-117-117v-377c0-64 53-117 117-117l281 0c65 0 118 53 118 117 0 22-18 39-39 39-22 0-40-17-40-39 0-21-17-39-39-39l-281 0c-21 0-39 18-39 39v377c0 22 18 39 39 39h281c22 0 39-17 39-39v-179c0-22 18-40 40-40z m-389 493h-291v76h41c18 0 33 12 38 29l5 22c4 16 18 27 34 27h50c17 0 31-11 35-27l5-22c4-17 20-29 38-29h45v-76z m232-313h-125c-21 0-39-17-39-39 0-22 18-39 39-39h125c22 0 39 17 39 39 0 22-17 39-39 39z m0-137h-125c-21 0-39-17-39-39 0-21 18-39 39-39h125c22 0 39 18 39 39 0 22-17 39-39 39z" horiz-adv-x="1000" />

<glyph glyph-name="pencil-3" unicode="&#xe863;" d="M989 610l-228 228c-15 15-40 15-55 0l-607-605c-4-4-8-10-10-17l-88-316c-3-13 1-28 11-38 7-7 17-11 27-11 4 0 7 0 11 1l315 90c14 4 24 14 28 28s-1 27-11 37l-82 84 438 438 57-57-330-328c-16-15-16-40-1-55 16-15 40-15 56 0l469 465c7 8 11 18 11 28 0 11-4 21-11 28z m-894-663l52 186 133-134-185-52z m149 199l-61 61 439 437 61-60-439-438z m606 381l-172 173 55 55 173-173-56-55z" horiz-adv-x="1000" />

<glyph glyph-name="photocamera" unicode="&#xe867;" d="M961 211c22 0 39 18 39 39v254c0 87-70 157-156 157h-59c-17 0-32 10-37 26l-12 35c-16 47-61 79-111 79h-250c-49 0-93-31-110-77l-14-38c-5-15-20-25-36-25h-59c-86 0-156-70-156-157v-449c0-86 70-156 156-156h688c86 0 156 70 156 156 0 22-17 39-39 39-22 0-39-17-39-39 0-43-35-78-78-78h-688c-43 0-78 35-78 78v449c0 43 35 78 78 78h59c49 0 93 32 110 78l13 37c6 16 21 26 37 26h250c16 0 31-11 37-26l12-35c16-48 60-80 111-80h59c43 0 78-35 78-78v-254c0-21 17-39 39-39z m-459 332c-135 0-244-109-244-244s109-244 244-244 244 110 244 244-109 244-244 244z m0-410c-92 0-166 75-166 166s74 166 166 166 166-74 166-166c0-91-74-166-166-166z" horiz-adv-x="1000" />

<glyph glyph-name="picture" unicode="&#xe868;" d="M961 116c-22 0-39-18-39-39 0-43-35-79-78-79h-298l-90 117 283 361 192-229c0 0 1-1 1-1 0 0 0 0 0 0 0 0 0 0 0 0 4-4 8-7 12-9 5-3 10-4 16-4 0 0 0 0 0 0 0 0 0 0 0 0 3 0 6 0 8 1l0 0c1 0 1 0 1 0 0 0 0 0 0 0 0 0 0 0 0 0 0 0 0 0 0 0 1 0 1 0 1 0 0 0 0 0 0 0 0 0 0 0 0 0 0 0 0 0 0 0 1 0 1 0 1 0 0 0 0 0 0 0 0 0 0 0 0 0 0 0 0 0 0 0l1 0c0 0 0 0 0 0 0 0 0 0 0 0 0 0 0 0 0 1 0 0 0 0 1 0 0 0 0 0 0 0 0 0 0 0 0 0 0 0 0 0 0 0 0 0 0 0 0 0 1 0 1 0 1 0 0 0 0 0 0 0 0 0 0 0 0 0 0 0 0 0 0 0 0 0 0 0 0 0 1 0 1 0 1 0l0 0c0 0 0 1 0 1 0 0 0 0 0 0 0 0 1 0 1 0 1 0 3 1 5 2 0 0 0 0 0 0 0 0 0 0 0 1 2 1 4 2 6 4 0 0 0 0 0 0 0 0 0 0 0 0 4 4 7 8 9 12 3 5 4 10 4 16 0 0 0 0 0 0 0 0 0 0 0 0 0 0 0 0 0 0 0 0 0 0 0 0 0 1 0 1 0 1v351c0 87-70 157-156 157h-688c-86 0-156-70-156-157v-546c0-87 70-157 156-157h370c0 0 0 0 0 0 1 0 1 0 1 0h317c86 0 156 70 156 157 0 21-17 39-39 39z m-805-118c-43 0-78 36-78 79v546c0 44 35 79 78 79h688c43 0 78-35 78-79v-244l-154 184c-7 9-18 14-30 14-12-1-23-6-30-15l-301-383-103 132c-7 10-18 16-31 16h0c-12 0-23-6-30-16l-86-111c-14-17-10-42 7-55 17-13 41-10 54 7l56 72 173-226h-291z m117 641c-64 0-117-52-117-117s53-117 117-117 118 52 118 117-53 117-118 117z m0-156c-21 0-39 17-39 39s18 39 39 39 40-18 40-39-18-39-40-39z" horiz-adv-x="1000" />

<glyph glyph-name="piechart" unicode="&#xe869;" d="M854 704c-95 94-220 146-354 146 0 0-1 0-2 0 0 0 0 0 0 0 0 0 0 0-1 0-132-1-257-53-351-146-94-95-146-220-146-354s52-259 146-354c95-94 220-146 354-146 91 0 181 25 259 72 18 11 24 35 13 54-11 18-35 24-54 13-65-40-141-61-218-61-233 0-422 189-422 422 0 219 168 399 381 420v-420c0-22 18-39 39-39h422c-6-69-30-136-70-195-12-18-7-42 11-54 18-12 42-7 54 10 56 83 85 179 85 278 0 134-52 259-146 354z m-317 66c30-2 58-8 86-16l-86-86v102z m0-213l164 164c24-13 46-28 66-45l-230-230v111z m54-168l232 232c17-21 33-43 46-67l-165-165h-113z m224 0l87 88c9-28 15-58 18-88h-105z" horiz-adv-x="1000" />

<glyph glyph-name="piggybank" unicode="&#xe86a;" d="M971 486c-14 16-39 17-55 3-16-15-17-39-2-55 5-6 7-14 7-26 0-20-7-27-15-31-9-5-19-7-23-7h-26c-16 74-55 135-115 180-27 21-58 38-93 51 15 25 23 54 23 83 0 92-75 166-166 166-92 0-166-74-166-166 0-9 1-19 3-29-45 38-99 58-162 60-14 1-27-6-34-18-7-12-8-27-1-40 0 0 28-50 38-108-39-37-58-78-72-109-5-12-12-27-17-33h-55c-22 0-39-17-39-39v-156c0-21 17-39 39-39h41c21-50 55-94 100-130l-13-31c-12-29-12-61 0-90 12-29 35-51 64-63 14-6 29-9 44-9 46 0 90 27 108 72l14 34c20-2 40-3 60-3h2c32 0 62 2 92 6l15-37c25-59 93-88 153-63 29 12 51 34 63 63 12 29 12 61 0 90l-28 68c-8 20-31 30-51 22-20-9-29-31-21-51l28-69c4-10 4-20 0-30-4-10-11-17-21-21-20-8-43 1-51 21l-27 66c-7 18-26 28-44 24-34-7-70-11-108-11h-2c-26 0-52 2-77 7-18 3-36-7-43-24l-26-62c-8-20-31-29-51-21-9 4-17 11-21 21-4 10-4 20 0 30l25 60c7 17 1 37-15 47-51 34-88 81-105 135-6 17-21 27-38 27h-28v78h18c51 0 70 44 86 79 14 31 30 66 66 94 11 8 17 21 15 34-3 32-11 63-19 88 31-12 57-33 79-62 8-12 23-18 38-16 28 5 61 8 96 8h2c77 0 327-19 327-262 0-22-2-42-7-62-4-21 9-42 30-46 22-5 42 9 47 30 5 25 8 51 8 78h19c4 0 29 1 55 14 39 19 60 56 60 102 0 31-9 58-28 78z m-403 136c-34 7-70 10-108 10h-2c-8 0-15 0-22-1-12 16-18 34-18 53 0 49 40 88 88 88s88-39 88-88c0-23-9-45-26-62z" horiz-adv-x="1000" />

<glyph glyph-name="play" unicode="&#xe86d;" d="M867 465l-591 365c-42 26-94 27-138 2-44-24-70-69-70-119v-725c0-76 61-138 136-138 1 0 1 0 1 0 24 0 48 7 71 21 18 11 24 35 13 54-11 18-35 24-54 13-10-7-21-10-30-10-28 0-59 24-59 60v725c0 22 11 41 30 51 19 11 41 10 59-1l591-364c18-11 28-29 28-50 0-21-10-39-28-50l-427-261c-19-12-24-36-13-54 11-18 35-24 53-13l427 262c41 25 66 68 66 116 0 48-24 91-65 116z" horiz-adv-x="1000" />

<glyph glyph-name="plus" unicode="&#xe86e;" d="M961 389h-422v422c0 22-17 39-39 39-22 0-39-17-39-39v-422h-422c-21 0-39-17-39-39s18-39 39-39h422v-422c0-22 17-39 39-39s39 17 39 39v422h422c22 0 39 17 39 39 0 22-17 39-39 39z" horiz-adv-x="1000" />

<glyph glyph-name="puzzle" unicode="&#xe872;" d="M961 165c22 0 39 18 39 40v238c0 86-70 156-156 156h-88c11 41 17 79 17 102 0 81-66 148-148 148s-148-67-148-148c0-23 6-61 17-102h-88c-86 0-156-70-156-156v-62c-40 10-79 17-102 17-81 0-148-67-148-149 0-81 67-148 148-148 22 0 60 5 102 15v-109c0-86 70-156 156-156h114c18 0 35 9 47 23 11 15 14 35 9 52-16 52-21 92-21 105 0 38 31 70 70 70s70-32 70-70c0-13-5-53-21-105-5-17-1-37 10-52 11-14 28-23 47-23h113c86 0 156 70 156 156 0 22-17 39-39 39-22 0-39-17-39-39 0-43-35-78-78-78h-88c11 41 17 79 17 102 0 82-66 148-148 148s-148-66-148-148c0-23 6-61 17-102h-88c-43 0-78 35-78 78v135c0 19-8 36-23 47-15 11-35 14-52 9-47-14-88-19-105-19-38 0-70 32-70 70s32 71 70 71c14 0 54-6 105-21 17-5 37-2 52 9 15 11 23 28 23 47v88c0 43 35 78 78 78h114c18 0 35 9 47 24 11 14 14 34 9 51-16 52-21 91-21 105 0 38 31 70 70 70s70-32 70-70c0-14-5-53-21-105-5-17-1-37 10-51 11-15 28-24 47-24h113c43 0 78-35 78-78v-238c0-22 17-40 39-40z" horiz-adv-x="1000" />

<glyph glyph-name="external-link-alt" unicode="&#xe874;" d="M750 399a42 42 0 0 1-42-41v-300a42 42 0 0 0-41-41h-459a42 42 0 0 0-41 41v459a42 42 0 0 0 41 41h300a42 42 0 0 1 0 84h-300a125 125 0 0 1-125-125v-459a125 125 0 0 1 125-125h459a125 125 0 0 1 125 125v300a42 42 0 0 1-42 41z m163 342a42 42 0 0 1-22 22 42 42 0 0 1-16 4h-250a42 42 0 0 1 0-84h150l-430-428a42 42 0 0 1 0-60 42 42 0 0 1 60 0l428 430v-150a42 42 0 0 1 84 0v250a42 42 0 0 1-4 16z" horiz-adv-x="1000" />

<glyph glyph-name="refresh" unicode="&#xe875;" d="M718-45c-10 19-34 25-53 15-50-27-107-42-165-42-189 0-344 154-344 344 0 22-17 39-39 39s-39-17-39-39c0-113 44-219 124-298s185-124 298-124c71 0 141 18 203 52 18 10 25 34 15 53z m80 615c-79 80-185 124-298 124h-143l89 90c15 15 15 40 0 55-16 15-41 15-56-1l-100-101c-45-45-45-119-1-165l99-101c8-8 18-12 28-12 10 0 20 4 27 12 16 15 16 39 1 55l-88 90h144c190 0 344-155 344-344 0-59-16-118-45-169-10-19-4-43 15-54 6-3 13-5 19-5 14 0 27 7 34 20 36 63 55 135 55 208 0 113-44 219-124 298z" horiz-adv-x="1000" />

<glyph glyph-name="removeuser" unicode="&#xe876;" d="M796 302c-42 30-88 54-137 70 65 48 107 126 107 212 0 147-119 266-266 266s-266-119-266-266c0-86 42-164 107-212-59-20-115-50-164-90-89-74-151-176-174-289-8-35 1-71 24-99 22-28 56-44 92-44h403c21 0 39 17 39 39 0 22-18 39-39 39h-403c-17 0-27 9-32 15-7 10-10 22-8 34 41 195 212 337 411 342 3 0 7 0 10 0 4 0 7 0 10 0 87-2 170-30 241-80 17-13 42-9 54 8 13 18 9 42-9 55z m-286 95c-4 0-7 0-10 0-3 0-6 0-9 0-99 5-178 87-178 187 0 104 84 188 187 188s188-84 188-188c0-100-79-182-178-187z m379-381l100 99c15 16 15 40 0 56-16 15-40 15-56 0l-99-100-99 100c-16 15-40 15-56 0-15-16-15-40 0-56l100-99-100-99c-15-16-15-40 0-56 8-7 18-11 28-11 10 0 20 4 28 11l99 100 99-100c8-7 18-11 28-11 10 0 20 4 28 11 15 16 15 40 0 56l-100 99z" horiz-adv-x="1000" />

<glyph glyph-name="rightarrow-2" unicode="&#xe87a;" d="M774 433l-382 383c-46 45-121 45-166 0-22-22-35-52-35-83v-766c0-31 13-61 35-83 23-23 53-34 83-34 30 0 60 11 83 34 15 15 15 40 0 55-16 16-40 16-56 0-15-15-40-15-55 0-7 8-11 18-11 28v766c0 10 4 20 11 28 15 15 40 15 55 0l383-383c15-16 15-40 0-56l-247-247c-16-15-16-40 0-55 15-16 40-16 55 0l247 247c46 46 46 120 0 166z" horiz-adv-x="1000" />

<glyph glyph-name="rightarrow" unicode="&#xe87b;" d="M966 433l-343 343c-15 15-40 15-55 0-15-15-15-40 0-55l343-343c15-16 15-40-1-56l-342-343c-15-15-15-40 0-55 8-8 18-12 28-12 10 0 20 4 27 12l343 343c45 46 45 120 0 166z m-218-44h-709c-21 0-39-17-39-39s18-39 39-39h709c22 0 39 17 39 39s-17 39-39 39z" horiz-adv-x="1000" />

<glyph glyph-name="scale" unicode="&#xe87e;" d="M960 94h-279l114 363 78-248c5-17 20-28 37-28 4 0 8 1 12 2 20 7 32 28 25 49l-115 368c-4 14-15 24-28 27l-188 44c-8 40-37 72-75 86v54c0 22-17 39-39 39-22 0-39-17-39-39v-54c-21-8-39-21-52-38l-197 46c-20 5-40-7-46-26l-163-526c-3-5-4-10-4-16 0 0 0 0 0 0 0-1 0-2 0-3 1-111 93-202 205-202 113 0 204 92 204 205 0 5-1 11-3 15l-144 462 122-29c1-64 53-116 117-116 45 0 85 26 104 64l140-33-154-489c0-2-1-4-1-6-1-3-1-7-1-10 0-113 92-205 204-205s205 92 205 205c0 21-17 39-39 39z m-754-24c-57 0-104 37-121 88h241c-16-51-64-88-120-88z m112 166h-225l112 360 113-360z m184 371c-21 0-39 18-39 39 0 22 18 39 39 39 22 0 39-17 39-39 0-21-17-39-39-39z m292-679c-56 0-104 37-120 88h241c-16-51-64-88-121-88z" horiz-adv-x="1000" />

<glyph glyph-name="eye-slash" unicode="&#xe87f;" d="M456 597a289 289 0 0 0 44 3c133 0 257-95 330-250a635 635 0 0 0-38-68 42 42 0 0 1-7-23 42 42 0 0 1 78-21 657 657 0 0 1 50 96 42 42 0 0 1 0 33c-84 195-242 316-413 316a324 324 0 0 1-58-5 42 42 0 1 1 14-83z m-301 158a42 42 0 0 1-60-60l130-128a609 609 0 0 1-138-200 42 42 0 0 1 0-34c84-195 242-316 413-316a386 386 0 0 1 210 64l135-136a42 42 0 0 1 60 0 42 42 0 0 1 0 60z m265-383l102-102a75 75 0 0 0-22-3 83 83 0 0 0-83 83 75 75 0 0 0 3 22z m80-272c-132 0-257 95-329 250a504 504 0 0 0 112 158l74-75a167 167 0 0 1 226-226l67-65a302 302 0 0 0-150-42z" horiz-adv-x="1000" />

<glyph glyph-name="settings" unicode="&#xe880;" d="M500 577c-125 0-227-102-227-227s102-227 227-227c23 0 46 4 68 11 21 7 32 28 26 49-7 21-29 32-49 25-15-4-30-6-45-6-82 0-148 66-148 148s66 148 148 148 148-66 148-148c0-14-2-28-5-42-7-20 5-42 26-48 21-6 42 6 49 26 6 21 9 42 9 64 0 125-102 227-227 227z m383-90h-20c-5 0-10 3-12 8l0 1c-2 5-1 10 3 14l13 14c46 46 46 120 0 166l-27 27c-22 23-52 35-83 35-31 0-61-12-83-35l-14-13c-4-4-9-5-14-3l-1 0c-5 2-8 7-8 12v20c0 64-53 117-117 117h-39c-65 0-118-53-118-117v-20c0-5-3-10-8-12l-1 0c-5-2-10-1-14 3l-14 13c-22 23-52 35-83 35-31 0-61-12-83-35l-27-27c-46-46-46-120 0-166l14-14c3-4 4-9 2-14l0-1c-2-5-7-8-12-8h-20c-64 0-117-53-117-117v-39c0-65 53-118 117-118h20c5 0 10-3 12-8l0-1c2-5 1-10-2-14l-14-14c-22-22-35-52-35-83 0-31 13-61 35-83l27-27c22-23 52-35 83-35 31 0 61 12 83 35l14 13c4 4 9 5 14 3l1 0c5-2 8-7 8-12v-20c0-64 53-117 118-117h39c64 0 117 53 117 117v20c0 5 3 10 8 12l1 0c5 2 10 1 14-3l14-13c22-23 52-35 83-35 31 0 61 12 83 35l27 27c23 22 35 52 35 83 0 31-12 61-35 83l-13 14c-4 4-5 9-3 14l0 1c2 5 7 8 12 8h20c64 0 117 53 117 118v39c0 64-53 117-117 117z m39-156c0-22-18-40-39-40h-20c-37 0-70-22-84-56l0-1c-14-34-7-73 19-99l14-14c8-8 12-17 12-28 0-10-4-20-12-27l-27-28c-8-7-18-12-28-12-11 0-20 5-28 12l-14 14c-26 26-65 34-99 19l-1 0c-34-14-56-47-56-84v-20c0-21-18-39-39-39h-39c-22 0-40 18-40 39v20c0 37-22 70-56 84l-1 0c-11 5-23 7-35 7-24 0-47-9-64-26l-14-14c-8-7-17-12-28-12-10 0-20 5-27 12l-28 28c-7 7-12 17-12 27 0 11 5 20 12 28l14 14c26 26 34 65 19 99l0 1c-14 34-47 56-84 56h-20c-21 0-39 18-39 40v39c0 21 18 39 39 39h20c37 0 70 22 84 56l0 1c15 34 7 73-19 99l-14 14c-15 16-15 40 0 56l28 27c7 8 17 12 27 12 11 0 20-4 28-12l14-14c26-26 65-33 99-19l1 0c34 14 56 47 56 84v20c0 21 18 39 40 39h39c21 0 39-18 39-39v-20c0-37 22-70 56-84l1 0c34-14 73-7 99 19l14 14c8 8 17 12 28 12 10 0 20-4 28-12l27-27c15-16 15-40 0-56l-14-14c-26-26-33-65-19-99l0-1c14-34 47-56 84-56h20c21 0 39-18 39-39v-39z" horiz-adv-x="1000" />

<glyph glyph-name="shield" unicode="&#xe882;" d="M914 669l-400 178c-10 4-22 4-32 0l-396-178c-14-6-23-20-23-35v-308c0-117 46-236 127-327 40-46 86-82 138-108 55-27 113-41 172-41 83 0 164 27 234 78 17 12 21 37 8 54-13 17-37 21-54 9-57-41-122-63-188-63-188 0-359 190-359 398v282l357 160 361-160v-282c0-72-21-145-60-210-11-19-5-43 14-54 18-11 42-5 53 14 46 77 71 164 71 250v308c0 15-9 29-23 35z" horiz-adv-x="1000" />

<glyph glyph-name="shoppingcart" unicode="&#xe883;" d="M991 623c-7 9-18 14-30 14h-708l-2 27-1 1c-13 105-104 185-211 185-21 0-39-17-39-39s18-39 39-39c68 0 125-50 134-117l46-427c-40-18-69-59-69-106 0-1 0-1 0-1 0-1 0-1 0-1 0-65 53-118 118-118h16c-4-11-7-24-7-37 0-63 52-115 116-115s115 52 115 115c0 13-2 26-6 37h168c-4-11-6-24-6-37 0-63 52-115 115-115 64 0 116 52 116 115 0 64-52 116-116 116h-511c-22 0-39 17-39 39 0 0 0 0 0 1 0 0 0 0 0 1 0 21 17 39 39 39h498c70 0 133 42 162 109 9 20 0 43-20 51-19 9-42 0-51-20-17-37-53-62-91-62h-469l-35 320h651l-19-92c-5-21 9-41 30-46 3 0 5-1 8-1 18 0 34 13 38 31l29 139c3 12 0 24-8 33z m-212-621c21 0 37-16 37-37s-16-37-37-37-37 17-37 37 17 37 37 37z m-386 0c20 0 37-16 37-37 0-20-17-37-37-37s-37 17-37 37 16 37 37 37z" horiz-adv-x="1000" />

<glyph glyph-name="shuffle" unicode="&#xe884;" d="M965 148l-121 120c-15 16-40 16-55 0-15-15-15-40 0-55l112-111h-48c-113 0-217 49-285 134-14 17-39 19-55 6-17-14-20-38-6-55 83-104 210-163 346-163h44l-108-107c-15-15-15-40 0-55 7-8 17-12 27-12 10 0 20 4 28 11l121 121c23 22 35 51 35 83s-12 61-35 83z m0 570l-121 121c-15 15-40 15-55-1-15-15-15-40 0-55l108-107h-44c-159 0-307-84-385-219l-17-29-27 46c-78 136-225 220-385 220-21 0-39-18-39-39s18-39 39-39c132 0 254-69 318-181l49-85-49-85c-64-111-186-181-318-181-21 0-39-17-39-39 0-21 18-39 39-39 160 0 307 84 385 220l61 104c0 0 0 1 0 1l50 87c65 111 186 180 318 180h48l-112-111c-15-15-15-40 0-55 7-8 17-12 27-12 10 0 20 4 28 12l121 120c23 22 35 52 35 83s-12 61-35 83z" horiz-adv-x="1000" />

<glyph glyph-name="star" unicode="&#xe88a;" d="M994 472c-14 45-54 74-102 74h-200c-13 0-24 8-28 20l-62 191c-14 45-54 74-102 74s-88-29-102-74l-62-191c-4-12-15-20-28-20h-200c-47 0-88-29-102-74-15-46 0-93 39-121l161-118c11-7 15-21 11-33l-62-190c-14-45 1-93 39-120 20-14 42-21 64-21 22 0 44 7 63 21l162 117c10 8 24 8 34 0l162-117c39-28 88-28 127 0 38 27 53 75 39 120l-42 130c-7 21-29 32-50 25-20-6-31-29-25-49l42-130c7-19-6-30-10-33-4-3-19-12-35 0l-162 117c-38 28-88 28-126 0l-162-117c-16-12-31-3-35 0-4 3-17 14-10 33l61 190c15 44-1 93-39 120l-161 118c-17 12-13 29-11 33 1 5 8 21 28 21h200c47 0 88 30 102 74l62 191c6 19 23 20 28 20s22-1 28-20l62-191c14-44 55-74 102-74h200c20 0 27-16 28-21 2-4 6-21-10-33l-111-80c-17-13-21-37-8-55 12-17 37-21 54-9l110 81c39 28 54 75 39 121z" horiz-adv-x="1000" />

<glyph glyph-name="react" unicode="&#xe88c;" d="M463 415a74 74 0 1 1 101-27 74 74 0 0 1-101 27z m333-81q-7 9-15 17 5 6 11 12c67 75 95 151 69 196-25 43-100 56-193 38q-14-2-28-6-3 9-5 18c-32 96-83 158-136 158-50 0-98-58-129-149q-5-13-9-26-9 2-18 4c-99 20-178 7-204-39-25-43 1-114 63-186q10-11 20-21c-8-8-15-16-22-24-61-70-86-140-61-184 26-44 104-59 199-40q12 2 23 5 5-15 10-29c30-88 79-145 129-145 51 0 103 61 134 153 3 7 5 15 8 22q14-3 29-6c92-18 165-4 190 39 26 45-1 120-65 193z m-626 206c16 27 81 38 166 21q8-2 16-4a853 853 0 0 1-17-111 870 870 0 0 1-88-71q-9 9-18 19l0 0c-53 62-74 119-59 146z m162-239c-22 16-41 32-59 49 18 17 37 33 59 49q-2-24-2-49 0-25 2-49z m0-164a302 302 0 0 0-110-4 74 74 0 0 0-52 27c-15 26 5 83 57 143q10 11 20 22a854 854 0 0 1 88-71 867 867 0 0 1 18-113q-11-2-21-4z m295 335q-21 13-42 25-21 12-43 24c25 10 49 19 73 26a759 759 0 0 0 12-75z m-224 135c27 77 66 124 96 124 33 0 74-51 102-133q2-8 5-16a853 853 0 0 1-106-41 836 836 0 0 1-104 41q3 13 7 25z m-16-59a763 763 0 0 0 72-27q-44-23-86-49c4 26 8 52 14 76z m-14-320q21-13 43-25 21-13 44-24a758 758 0 0 0-73-28c-6 24-10 50-14 77z m228-131a302 302 0 0 0-52-97l0 0a74 74 0 0 0-49-31c-31 0-69 45-96 121q-4 13-8 27a838 838 0 0 1 105 42 867 867 0 0 1 106-41q-3-10-6-21z m15 56c-24 7-48 16-74 26q22 12 43 24 22 13 43 26a756 756 0 0 0-12-76z m18 197q1-38-2-76c-20-14-42-27-65-40-22-13-44-25-66-36q-35 17-68 36-33 19-64 40-3 38-3 76l0 0q0 38 3 76c20 14 42 27 64 40 22 13 45 25 67 36q34-17 67-36 33-19 65-40 2-38 2-76z m40 212c80 16 141 5 156-21 16-28-7-89-65-154l0 0q-5-6-10-11a836 836 0 0 1-89 70 835 835 0 0 1-17 111q13 3 25 5z m-5-162a757 757 0 0 0 61-49 755 755 0 0 0-61-50q1 24 1 49 0 25-1 50z m161-241c-15-26-74-37-152-22q-14 2-28 6a836 836 0 0 1 16 112 831 831 0 0 1 89 71q8-7 14-15v0a301 301 0 0 0 59-93 74 74 0 0 0 2-59z" horiz-adv-x="1000" />

<glyph glyph-name="tag" unicode="&#xe891;" d="M893 850c-2 0-53 0-110-22-67-26-117-72-146-134l-171 17c-47 5-93-11-126-44l-294-293c-61-61-61-160 0-221l256-257c31-31 72-46 112-46 40 0 79 15 109 45 15 15 15 40 0 55s-40 16-55 0c-30-30-80-29-110 1l-257 257c-30 31-30 80 0 110l294 293c17 17 40 25 63 23l199-20c1 0 1-1 2-1l96-9 6-60c-69-26-135-30-136-30-22-1-38-19-37-41 1-21 18-37 39-37 1 0 1 0 2 0 3 0 67 4 140 28l16-157c3-23-5-46-22-63l-150-147c-15-15-16-40-1-55 16-16 40-16 56-1l150 148c0 0 0 0 0 0 34 33 50 79 45 126l-18 181c101 54 155 138 155 245v2c0 59-48 107-107 107z m29-109l0 0c0-67-29-120-86-159l-6 61c-2 19-17 33-35 35l-74 8c21 30 50 53 88 68 44 18 83 18 83 18 17 0 30-13 30-29v-2z" horiz-adv-x="1000" />

<glyph glyph-name="target" unicode="&#xe892;" d="M961 389h-39c-9 98-51 189-122 259-71 71-162 114-261 122v41c0 22-17 39-39 39-22 0-39-17-39-39v-41c-97-9-187-52-257-122-71-70-113-161-122-259h-43c-21 0-39-17-39-39s18-39 39-39h43c9-98 51-189 122-259 70-70 160-113 257-122v-41c0-22 17-39 39-39s39 17 39 39v41c58 5 115 22 165 50 19 10 26 34 16 53-10 19-34 26-53 15-39-21-83-35-128-40v80c0 22-17 39-39 39-22 0-39-17-39-39v-79c-157 19-283 144-301 302h78c22 0 39 17 39 39 0 22-17 39-39 39h-78c18 158 144 284 301 302v-79c0-22 17-39 39-39s39 17 39 39v80c159-17 286-144 305-303h-82c-22 0-39-17-39-39s17-39 39-39h81c-5-48-21-94-46-136-11-19-5-43 14-54 18-11 42-5 53 14 33 54 52 114 58 176h39c22 0 39 17 39 39 0 22-17 39-39 39z" horiz-adv-x="1000" />

<glyph glyph-name="tools" unicode="&#xe895;" d="M848 800c-19 18-41 34-66 46-12 6-26 5-38-2-11-7-18-19-18-33v-169l-58-36-57 36v169c0 14-7 26-18 33-12 7-26 8-38 2-27-13-49-29-67-46-47-47-79-109-89-170-11-73 11-141 60-190 20-20 56-42 92-53v-418c0-31 12-61 33-83 22-22 52-34 83-34h0c31 0 61 12 83 34 22 22 35 52 35 83 0 21-18 39-39 39h0c-22 0-39-18-39-39 0-10-5-20-12-28-8-7-17-11-28-11h0c-10 0-20 4-27 11-7 7-11 17-11 28v450c0 20-16 37-37 39-24 1-62 22-78 37-31 32-45 75-37 123 6 41 26 82 56 116v-114c0-13 7-26 18-33l96-60c13-8 29-8 42-1l97 61c11 7 18 20 18 33v112c36-41 57-92 57-140 0-26-7-65-39-97-17-16-55-36-78-37-21-1-37-18-37-39v-253c0-22 17-39 39-39 21 0 39 17 39 39v221c35 11 71 32 92 53 40 40 62 93 62 152 0 73-34 151-91 208z m-548-193c9 10 13 24 10 37l-43 174c-4 17-20 30-38 30h-86c-18 0-33-13-37-30l-43-174c-4-13 0-27 10-37l76-78v-187c-45-16-78-60-78-110v-265c0-31 12-61 35-83 22-22 51-34 82-34 0 0 0 0 0 0 32 0 61 12 83 34 22 22 34 52 34 83v265c0 31-12 60-34 82-13 13-27 22-44 28v191l73 74z m-73-375v-265c0-11-4-20-11-28-8-7-17-11-28-11h0c-10 0-20 4-27 11-8 8-12 17-12 28v265c0 21 18 39 39 39 11 0 20-4 28-12 7-7 11-17 11-27h0z m-41 371l-42 43 30 124h25l30-124-43-43z" horiz-adv-x="1000" />

<glyph glyph-name="umbrella" unicode="&#xe899;" d="M986 402c-5 21-26 34-47 29-21-5-34-26-29-47 4-15 7-30 9-45-28 6-63 11-103 11-36 0-79-11-112-21-10 174-63 289-109 357 99-21 186-76 246-156 13-18 38-21 55-8 17 13 21 37 8 55-46 60-106 110-174 144-59 29-124 46-191 51v39c0 22-17 39-39 39-22 0-39-17-39-39v-39c-119-8-230-57-314-138-95-92-147-215-147-348 0-14 7-26 18-33 11-7 25-8 37-3 0 0 53 22 125 22 43 0 114-24 139-34 2-1 5-2 7-2 3-1 5-1 8-1 5 0 10 1 15 3 0 0 0 0 0 0 0 0 0 0 0 0 1 0 2 1 3 1 4 2 48 23 109 31v-303c0-21-18-39-39-39-21 0-39 18-39 40 0 22-18 39-39 39-22 0-39-17-39-39 0-65 52-118 117-118s117 53 117 117v303c60-8 104-29 109-31 5-3 11-4 18-4 6 0 11 1 16 3 23 10 91 34 134 34 73 0 130-22 130-23 12-4 26-3 37 4 11 7 17 20 17 33 0 39-5 78-14 116z m-690-74c-34 11-79 22-116 22-39 0-72-5-98-11 22 173 151 310 323 347-46-68-99-183-109-358z m204 22c-49 0-93-9-125-19 8 132 43 222 74 276 18 34 37 58 51 74 13-15 31-38 49-69 31-55 68-147 76-281-32 10-76 19-125 19z" horiz-adv-x="1000" />

<glyph glyph-name="uparrow-2" unicode="&#xe89a;" d="M966 242c-15 15-40 15-55 0-16-16-16-40 0-56 15-15 15-40 0-55-8-7-18-11-28-11h-766c-10 0-20 4-27 11-16 15-16 40 0 55l382 383c16 15 40 15 56 0l251-252c15-16 40-16 55 0 16 15 16 39 0 55l-251 252c-46 46-120 46-166 0l-383-382c-45-46-45-121 0-166 22-22 52-35 83-35h766c31 0 61 13 83 35 45 45 45 120 0 166z" horiz-adv-x="1000" />

<glyph glyph-name="uparrow-3" unicode="&#xe89b;" d="M926 473l-343 343c-46 45-120 45-166 0l-343-343c-15-15-15-40 0-55 15-15 40-15 55 0l343 343c16 15 40 15 56-1l343-342c8-7 18-11 28-11 10 0 20 4 27 11 15 15 15 40 0 55z m-426 164c-22 0-39-17-39-39v-709c0-22 17-39 39-39s39 17 39 39v709c0 22-17 39-39 39z" horiz-adv-x="1000" />

<glyph glyph-name="uparrow" unicode="&#xe89c;" d="M989 164l-406 405c-46 45-120 45-166 0l-405-405c-16-15-16-40-1-55 16-16 40-16 56 0l405 404c16 16 40 16 56 0l405-404c8-8 18-12 28-12 10 0 20 4 28 12 15 15 15 40 0 55z" horiz-adv-x="1000" />

<glyph glyph-name="user-2" unicode="&#xe89f;" d="M983 213c-18 13-42 9-55-9l-192-268c-5-6-12-8-15-8-4 0-11 0-17 6l-124 121c-15 15-40 15-55 0-15-16-15-41 1-56l124-121c0 0 0 0 0 0 19-18 44-28 69-28 3 0 5 0 7 0 28 2 54 16 72 37 0 1 0 2 1 2l193 270c12 17 8 42-9 54z m-493 107c3 0 7 0 10 0 4 0 7 0 10 0 101-2 197-40 272-106 17-14 41-12 55 4 15 16 13 41-3 55-52 45-111 79-175 100 64 48 106 125 106 212 0 146-119 265-265 265s-265-119-265-265c0-87 42-164 106-212-59-20-114-50-163-90-89-74-151-176-175-288-7-36 2-72 25-100 22-27 56-43 91-43h344c22 0 39 17 39 39s-17 39-39 39h-344c-16 0-26 9-31 15-8 9-11 22-8 34 40 194 212 336 410 341z m-177 265c0 103 84 187 187 187s187-84 187-187c0-100-79-182-177-187-4 0-7 0-10 0-3 0-6 0-9 0-99 5-178 87-178 187z" horiz-adv-x="1000" />

<glyph glyph-name="user" unicode="&#xe8a0;" d="M998-7c-5 21-26 35-47 30-21-4-34-25-30-46 3-12 0-24-8-34-5-6-15-15-31-15h-763c-17 0-27 9-32 15-7 10-10 22-8 34 41 195 212 337 411 342 3 0 7 0 10 0 4 0 7 0 10 0 140-3 269-74 347-191 13-18 37-22 55-10 18 12 22 36 10 54-64 95-157 165-263 200 65 48 107 126 107 212 0 147-119 266-266 266s-266-119-266-266c0-86 42-164 107-212-59-20-115-50-164-90-89-74-151-176-174-289-8-35 1-71 24-99 22-28 56-44 92-44h763c35 0 69 16 91 44 23 28 32 64 25 99z m-685 591c0 104 84 188 187 188s188-84 188-188c0-100-79-182-178-187-4 0-7 0-10 0-3 0-6 0-9 0-99 5-178 87-178 187z" horiz-adv-x="1000" />

<glyph glyph-name="videocamera" unicode="&#xe8a2;" d="M961 354c22 0 39 17 39 39v109c0 45-25 85-65 105-40 20-87 16-123-11l-1-1-120-103v48c0 86-70 156-156 156h-379c-86 0-156-70-156-156v-379c0-87 70-157 156-157h379c86 0 156 70 156 157v45l119-102 2-2c21-15 46-23 71-23 18 0 35 4 52 12 40 20 65 60 65 105 0 21-17 39-39 39-22 0-39-18-39-39 0-15-8-28-22-35-13-7-28-5-40 3l-169 145v80l169 145c12 9 27 10 40 3 14-7 22-20 22-35v-109c0-22 17-39 39-39z m-348-193c0-43-35-79-78-79h-379c-43 0-78 36-78 79v379c0 43 35 78 78 78h379c43 0 78-35 78-78v-379z" horiz-adv-x="1000" />

<glyph glyph-name="wallclock" unicode="&#xe8a4;" d="M854 704c-95 94-220 146-354 146s-259-52-354-146c-94-95-146-220-146-354s52-259 146-354c95-94 220-146 354-146 91 0 181 25 259 72 18 11 24 35 13 54-11 18-35 24-54 13-65-40-141-61-218-61-233 0-422 189-422 422s189 422 422 422 422-189 422-422c0-83-25-164-72-234-12-18-7-42 11-54 18-12 42-7 54 10 56 83 85 179 85 278 0 134-52 259-146 354z m-354-2c-22 0-39-18-39-39v-297l-143-143c-16-15-16-40 0-55 7-8 17-12 27-12s20 4 28 12l155 154c7 8 11 18 11 28v313c0 21-17 39-39 39z" horiz-adv-x="1000" />

<glyph glyph-name="eye" unicode="&#xe8a5;" d="M913 367c-84 195-242 316-413 316s-329-121-413-316a42 42 0 0 1 0-34c84-195 242-316 413-316s329 121 413 316a42 42 0 0 1 0 34z m-413-267c-132 0-257 95-329 250 72 155 197 250 329 250s257-95 329-250c-72-155-197-250-329-250z m0 417a167 167 0 1 1 167-167 167 167 0 0 1-167 167z m0-250a83 83 0 1 0 83 83 83 83 0 0 0-83-83z" horiz-adv-x="1000" />

<glyph glyph-name="bar-chart" unicode="&#xe8aa;" d="M605 766h-210c-21 0-37-17-37-37v-595c0-21 16-37 37-37 20 0 36 16 36 37v558h138v-64c0-20 16-36 36-36 21 0 37 16 37 36v101c0 20-16 37-37 37z m358-261h-357c0 0 0 0-1 0-20 0-36-16-36-36v-461h-495v262h137v-136c0-20 16-37 37-37 20 0 36 17 36 37v172c0 21-16 37-36 37h-211c-20 0-37-16-37-37v-335c0-20 17-37 37-37h568c21 0 37 17 37 37v461h285v-424h-138v288c0 20-16 37-36 37-21 0-37-17-37-37v-325c0-20 16-37 37-37h210c21 0 37 17 37 37v498c0 20-16 36-37 36z" horiz-adv-x="1000" />

<glyph glyph-name="book" unicode="&#xe8ac;" d="M862 595h-597c-50 0-90 41-90 91 0 49 41 90 90 90h597c20 0 37 17 37 37 0 20-17 37-37 37h-597c-90 0-164-74-164-164v-671c0-91 74-165 164-165h443c20 0 37 17 37 37 0 21-17 37-37 37h-443c-50 0-90 41-90 91v534c26-18 57-28 90-28h560v-634c0-20 17-37 37-37 20 0 37 17 37 37v672c0 20-17 36-37 36z m0 125h-588c-21 0-37-16-37-37s16-36 37-36h588c20 0 37 16 37 36s-17 37-37 37z m-205-323h-314c-20 0-37-17-37-37v-270c0-20 17-37 37-37h314c20 0 37 17 37 37v270c0 20-17 37-37 37z m-37-270h0-240v196h240v-196z" horiz-adv-x="1000" />

<glyph glyph-name="cancel-1" unicode="&#xe8ae;" d="M551 350l86 85c15 15 15 38 0 52-14 15-37 15-52 0l-85-85-86 85c-14 15-37 15-52 0-14-14-14-37 0-52l86-85-86-86c-14-14-14-37 0-52 7-7 17-11 26-11 9 0 19 4 26 11l86 86 85-86c7-7 17-11 26-11 10 0 19 4 26 11 14 14 14 38 0 52l-86 86z m303 354c-15 14-38 14-52 0l-114-114c-15-15-15-38 0-52 14-15 37-15 52 0l87 87c141-168 132-419-25-577-81-80-188-125-302-125-114 0-221 45-302 125-166 167-166 437 0 604 102 102 248 145 390 115 20-4 39 9 43 29 4 20-8 39-28 43-166 35-337-16-457-135-94-95-146-220-146-354s52-259 146-354c95-94 220-146 354-146s259 52 354 146 146 220 146 354-52 259-146 354z" horiz-adv-x="1000" />

<glyph glyph-name="checked-1" unicode="&#xe8af;" d="M854 704c-95 94-220 146-354 146s-259-52-353-146c-95-95-147-220-147-354s52-259 147-354c94-94 220-146 353-146s259 52 354 146c94 95 146 221 146 354s-52 259-146 354z m-354-781c-235 0-427 192-427 427s192 427 427 427 427-192 427-427-192-427-427-427z m259 554l-88 89c-14 15-37 15-52 1l-125-125c-14-14-14-37 0-52 14-14 37-14 52 0l99 99 37-38-242-240-122 124 37 37 60-60c14-15 37-15 52-1 14 15 14 38 0 52l-86 86c-7 7-16 11-25 11 0 0 0 0-1 0-9 0-19-4-25-11l-90-88c-7-7-10-16-10-26 0-10 3-19 10-26l174-175c7-7 16-11 26-11 0 0 0 0 0 0 10 0 19 4 26 11l293 292c7 7 11 16 11 25 0 10-4 20-11 26z" horiz-adv-x="1000" />

<glyph glyph-name="checked" unicode="&#xe8b0;" d="M284 429c-14 15-38 15-52 1-15-15-15-38 0-53l174-175c7-7 16-11 26-11 0 0 0 0 0 0 10 0 19 4 26 11l531 528c15 14 15 37 0 52s-37 14-52 0l-187-186c-80 98-200 156-328 156-60 0-117-13-171-37-52-23-99-56-138-98-39-42-68-90-88-144-20-55-28-114-24-174 15-208 182-376 390-391 10-1 21-1 31-1 97 0 190 33 265 94 82 66 136 160 152 264 4 21 5 43 5 64 0 21-16 37-37 37-20 0-36-16-36-37 0-17-2-35-4-53-28-178-190-307-371-294-171 12-309 151-322 322-6 98 26 192 93 263 66 71 159 111 255 111 108 0 209-50 275-135l-265-263-148 149z" horiz-adv-x="1000" />

<glyph glyph-name="circular" unicode="&#xe8b1;" d="M925 224c1 5 1 10 2 16 0 1 0 2 0 3 0 2 1 5 1 7 0 1 0 2 0 4 0 2 0 4 0 6 0 2 1 3 1 4 0 3 0 5 0 7 0 2 0 3 0 4 0 3 0 7 0 10 0 132-59 255-163 337-16 12-39 9-51-6-13-16-10-39 6-51 86-68 136-170 136-280 0-3 0-6-1-9 0-1 0-2 0-3 0-2 0-4 0-6 0-1 0-2 0-3 0-2 0-3 0-5 0-1-1-2-1-3 0-2 0-4 0-6 0-1 0-2 0-2-5 0-10 0-15 0-88 0-160-72-160-160 0-20 16-36 36-36 20 0 37 16 37 36 0 48 39 88 87 88 48 0 88-40 88-88 0-48-40-87-88-87-20 0-36-17-36-37 0-20 16-36 36-36 88 0 160 72 160 160 0 58-30 108-75 136z m-294 540c-22 36-57 62-98 72-42 11-85 4-121-18s-63-57-73-99c-3-11-4-24-5-36-18-7-36-17-54-27-113-69-187-183-203-314-3-20 11-38 31-40 2-1 3-1 5-1 18 0 33 14 36 32 13 109 75 204 169 261 11 6 22 12 33 17 2-4 4-8 7-12 30-50 83-78 137-78 28 0 56 8 82 23 17 10 23 33 13 50-11 17-33 22-50 12-42-25-95-11-120 30-25 41-12 95 29 120 20 12 44 16 66 10 23-6 42-20 54-40 10-17 33-22 50-12 17 10 23 33 12 50z m50-825c-7 19-29 28-47 20-102-42-215-35-311 18 0 0 0 0 0 0-2 2-5 3-7 4-1 1-2 1-3 2-1 1-3 2-5 3-1 0-1 1-2 2-2 1-3 2-5 3-1 0-2 1-2 2-2 1-4 2-5 3-1 0-1 1-2 1 3 4 5 8 8 13 43 77 15 174-62 217-17 10-39 4-49-14-10-17-4-39 14-49 42-24 57-77 34-119-16-29-46-45-77-45-14 0-29 4-42 11-42 24-57 77-34 119 10 18 4 40-14 50-17 9-39 3-49-14-44-78-16-176 61-219 24-14 51-20 78-20 27 0 53 7 77 20 1-1 3-2 4-3 0 0 0 0 1-1 2-1 5-3 7-5 1-1 2-2 3-2 2-2 4-3 6-4 1-1 2-2 3-2 2-1 4-3 6-4 1 0 2-1 3-2 2-1 4-2 6-3 1-1 2-2 3-2 3-2 6-3 9-5 65-37 137-55 209-55 56 0 111 11 165 33 18 7 27 29 19 47z" horiz-adv-x="1000" />

<glyph glyph-name="clipboard-1" unicode="&#xe8b2;" d="M888 743h-198v70c0 21-16 37-36 37h-308c-20 0-36-16-36-37v-193c0-20 16-37 36-37h227c21 0 37 17 37 37 0 20-16 37-37 37h-190v120h234v-70c0-20 16-37 37-37h197v-747h-702v747h56c20 0 37 17 37 37 0 20-17 36-37 36h-93c-20 0-36-16-36-36v-820c0-21 16-37 36-37h776c20 0 37 16 37 37v820c0 20-17 36-37 36z m-182-382h-288c-20 0-36-16-36-36 0-20 16-37 36-37h288c20 0 37 17 37 37 0 20-17 36-37 36z m0 139h-288c-20 0-36-17-36-37 0-20 16-36 36-36h288c20 0 37 16 37 36 0 20-17 37-37 37z m0-277h-288c-20 0-36-17-36-37 0-20 16-37 36-37h288c20 0 37 17 37 37 0 20-17 37-37 37z m0-139h-288c-20 0-36-16-36-36 0-21 16-37 36-37h288c20 0 37 16 37 37 0 20-17 36-37 36z" horiz-adv-x="1000" />

<glyph glyph-name="clipboard" unicode="&#xe8b3;" d="M888 743h-197v70c0 21-17 37-37 37h-307c-21 0-37-16-37-37v-193c0-20 16-37 37-37h227c20 0 36 17 36 37 0 20-16 37-36 37h-191v120h234v-70c0-21 17-37 37-37h197v-747h-702v747h56c20 0 37 16 37 37 0 20-17 36-37 36h-93c-20 0-36-16-36-36v-820c0-21 16-37 36-37h776c20 0 37 16 37 37v820c0 20-17 36-37 36z m-219-336c-14 14-37 14-52 0l-171-170-63 63c-14 15-37 15-52 0-14-14-14-37 0-52l89-89c7-7 16-11 26-11 9 0 19 4 26 11l197 196c15 14 15 37 0 52z" horiz-adv-x="1000" />

<glyph glyph-name="clock" unicode="&#xe8b4;" d="M854 704c-15 14-39 14-53 0l-114-114c-15-15-15-38 0-53 14-15 38-15 53 0l86 86c140-166 132-417-25-574-166-165-436-165-601 0s-166 436 0 602c102 102 247 145 388 115 20-4 39 9 44 29 4 20-9 40-29 44-166 35-337-16-457-135-94-95-146-220-146-354s52-259 147-354c94-94 219-146 353-146s259 52 354 146c94 95 146 220 146 354s-52 259-146 354z m-354-6c-21 0-37-17-37-37v-295l-149-149c-15-15-15-38 0-53 7-7 17-11 26-11 10 0 19 4 26 11l160 160c1 1 2 2 3 2 0 1 0 1 0 2 1 0 1 1 2 1 0 1 0 1 1 2 0 0 0 1 1 2 0 0 0 1 0 1 1 1 1 1 1 2 0 1 1 1 1 2 0 0 0 1 0 1 1 1 1 2 1 2 0 1 0 1 0 2 1 1 1 1 1 2 0 1 0 1 0 2 0 1 0 2 0 3v311c0 20-17 37-37 37z" horiz-adv-x="1000" />

<glyph glyph-name="cloud-1" unicode="&#xe8b9;" d="M936 407c-14 15-37 17-52 4s-17-37-4-52c30-35 46-79 46-124 0-95-74-178-167-185h-543c-78 5-143 79-143 162 0 54 29 104 76 131 15 9 22 28 15 45-3 9-5 20-5 31 0 50 41 92 92 92 10 0 21-2 31-6 18-6 38 2 46 19 36 77 114 126 199 126 114 0 209-85 219-199 2-20 20-35 40-33 20 2 35 20 33 40-7 73-40 139-94 189-54 49-124 77-198 77-57 0-112-17-159-47-38-24-69-57-92-95-8 1-17 2-25 2-91 0-165-74-165-165 0-10 1-19 2-28-55-43-88-109-88-179 0-58 22-115 61-159 41-46 95-73 152-77 1 0 2 0 2 0h546c1 0 2 0 3 0 64 5 123 34 168 83 44 49 68 111 68 176 0 63-23 124-64 172z" horiz-adv-x="1000" />

<glyph glyph-name="computer" unicode="&#xe8bb;" d="M823 620h-147c-21 0-38-17-38-37 0-20 17-37 38-37h58l-248-247c-14-15-14-39 0-53 7-7 17-11 26-11 10 0 19 4 26 11l248 247v-58c0-20 17-37 37-37 20 0 37 17 37 37v148c0 20-17 37-37 37z m-330-52c-14 14-38 14-52 0l-227-227v58c0 20-17 37-37 37-21 0-37-17-37-37v-148c0-20 16-37 37-37h147c21 0 38 17 38 37 0 20-17 37-38 37h-57l226 227c15 14 15 38 0 53z m425 251h-836c-45 0-82-36-82-81v-621c0-45 37-82 82-82h381v-80h-117c-21 0-37-17-37-37 0-21 16-37 37-37h308c21 0 38 16 38 37 0 20-17 37-38 37h-117v117c0 21-16 37-37 37h-418c-4 0-8 4-8 8v621c0 4 4 7 8 7h836c4 0 8-3 8-7v-621c0-4-4-8-8-8h-230c-21 0-38-16-38-37 0-20 17-37 38-37h230c45 0 82 37 82 82v621c0 45-37 81-82 81z" horiz-adv-x="1000" />

<glyph glyph-name="devices" unicode="&#xe8be;" d="M911 480h-46v155c0 58-47 105-105 105h-655c-58 0-105-47-105-105v-424c0-58 47-105 105-105h291v-72h-89c-21 0-37-17-37-37 0-20 16-37 37-37h252c20 0 37 17 37 37 0 20-17 37-37 37h-89v72h82c20 0 37 16 37 37 0 20-17 37-37 37h-447c-17 0-31 13-31 31v424c0 17 14 31 31 31h655c17 0 31-14 31-31v-155h-45c-50 0-89-40-89-89v-342c0-49 39-89 89-89h165c20 0 37 17 37 37 0 20-17 37-37 37h-165c-9 0-16 7-16 15v342c0 8 7 15 16 15h165c9 0 16-7 16-15v-258c0-20 16-37 36-37 21 0 37 17 37 37v258c0 49-40 89-89 89z" horiz-adv-x="1000" />

<glyph glyph-name="messenger" unicode="&#xe8bf;" d="M500 767a402 402 0 0 1-417-404 396 396 0 0 1 131-300 34 34 0 0 0 11-23l0-74a34 34 0 0 1 48-30l83 36a31 31 0 0 0 22 0 458 458 0 0 1 121-15 404 404 0 1 1 1 810z m250-311l-122-194a63 63 0 0 0-90-17l-98 73a25 25 0 0 1-30 0l-132-100a20 20 0 0 0-28 26l122 194a63 63 0 0 0 91 17l97-73a25 25 0 0 1 30 0l132 100a20 20 0 0 0 28-26z" horiz-adv-x="1000" />

<glyph glyph-name="file-blank" unicode="&#xe8c0;" d="M833 478a55 55 0 0 1-2 11l0 4a45 45 0 0 1-8 11h0l-250 250h0a45 45 0 0 1-12 8l-3 0a37 37 0 0 1-14 5h-252a125 125 0 0 1-125-125v-584a125 125 0 0 1 125-125h416a125 125 0 0 1 125 125v417s0 0 0 3z m-250 147l108-108h-66a42 42 0 0 0-42 41z m167-567a42 42 0 0 0-42-41h-416a42 42 0 0 0-42 41v584a42 42 0 0 0 42 41h208v-125a125 125 0 0 1 125-125h125z" horiz-adv-x="1000" />

<glyph glyph-name="download-1" unicode="&#xe8c1;" d="M743 337c-14 14-37 14-52 0l-154-155v401c0 20-17 37-37 37-20 0-37-17-37-37v-401l-154 155c-15 14-38 14-52 0-15-14-15-37 0-52l217-217c7-7 16-11 26-11 9 0 19 4 26 11l217 217c14 14 14 38 0 52z m-243 513c-20 0-37-16-37-37v-84c0-20 17-37 37-37 20 0 37 17 37 37v84c0 21-17 37-37 37z m394-683c-20 0-36-17-36-37v-207h-716v207c0 20-16 37-36 37-20 0-37-17-37-37v-243c0-21 17-37 37-37h788c21 0 37 16 37 37v243c0 20-16 37-37 37z" horiz-adv-x="1000" />

<glyph glyph-name="download-2" unicode="&#xe8c2;" d="M743 130c-14 15-37 15-52 0l-154-155v401c0 20-17 37-37 37-20 0-37-17-37-37v-401l-154 155c-15 15-38 15-52 0-15-14-15-37 0-52l217-217c7-7 16-11 26-11 9 0 19 4 26 11l217 217c14 14 14 38 0 52z m-243 513c-20 0-37-17-37-37v-84c0-20 17-37 37-37 20 0 37 17 37 37v84c0 20-17 37-37 37z m394 207h-788c-20 0-37-16-37-37v-243c0-20 17-36 37-36 20 0 36 16 36 36v207h715v-207c1-20 17-36 37-36 21 0 37 16 37 36v243c0 21-16 37-37 37z" horiz-adv-x="1000" />

<glyph glyph-name="download-3" unicode="&#xe8c3;" d="M831 850h-331c-20 0-37-17-37-37v-565l-81 81c-14 14-38 14-52 0-14-14-14-38 0-52l144-144c7-7 17-11 26-11s19 4 26 11l144 144c14 14 14 38 0 52-14 14-38 14-52 0l-81-81v528h294c53 0 95-42 95-94v-664c0-52-42-94-95-94h-662c-53 0-95 42-95 94v664c0 52 42 94 95 94h86c20 0 36 17 36 37s-16 37-36 37h-86c-93 0-169-76-169-168v-664c0-92 76-168 169-168h662c93 0 169 76 169 168v664c0 92-76 168-169 168z" horiz-adv-x="1000" />

<glyph glyph-name="edit-1" unicode="&#xe8c5;" d="M999 644c-2 4-2 8-3 12-2 11-5 23-10 35-31 70-82 120-151 148-15 6-30 8-43 9l-3 0c-16 2-38 0-59-21-90-90-181-181-269-269l-64-65c-15-14-21-20-24-23s-3-3-5-6c-3-2-9-8-25-24-14-15-14-38 1-52 14-15 38-14 52 0 16 16 22 22 24 25 3 2 3 2 5 5 3 3 9 9 24 23l64 65c89 88 180 179 269 269l0 0h1c9-1 18-2 24-4 52-21 88-57 111-109 3-6 4-13 6-21 0-2 1-4 1-6 0 0 0 0-1-1-147-147-300-300-468-469-1 0-1 0-3-1-56-12-113-24-169-35l-8-2 1 7c12 57 24 115 37 172 4 20-8 39-28 44-20 4-40-9-44-28-12-58-25-116-37-172l-6-32c-4-20 1-40 15-53 10-11 25-17 40-17 4 0 8 1 13 2l33 7c56 11 113 23 169 35 15 4 28 10 39 22 168 168 322 321 469 468 13 14 21 30 23 50 0 4 0 8-1 12z m-206-333c-20 0-37-17-37-37v-333c0-9-7-16-16-16h-650c-9 0-16 7-16 16v650c0 9 7 16 16 16h347c20 0 37 17 37 37 0 20-17 37-37 37h-347c-50 0-90-40-90-90v-650c0-50 40-90 90-90h650c50 0 90 40 90 90v333c0 20-17 37-37 37z" horiz-adv-x="1000" />

<glyph glyph-name="folder-1" unicode="&#xe8cb;" d="M928 498v72c0 47-38 85-85 85h-429v30c0 42-34 76-76 76h-301c-20 0-37-16-37-37v-748c0-21 17-37 37-37s37 16 37 37v711h264c1 0 2-1 2-2v-67c0-20 17-36 37-36h466c6 0 11-6 11-12v-108c0-20 17-37 37-37h23c7 0 12-5 12-11v-401h-695v401c0 6 6 11 12 11h486c20 0 37 17 37 37 0 21-17 37-37 37h-486c-47 0-85-38-85-85v-438c0-20 16-37 37-37h768c20 0 37 17 37 37v438c0 42-31 78-72 84z" horiz-adv-x="1000" />

<glyph glyph-name="head-1" unicode="&#xe8cd;" d="M761 213c-15-14-16-38-3-53 14-15 38-16 53-2 82 75 129 182 129 294 0 219-179 398-398 398-60 0-117-13-171-38-67-32-125-81-166-144-42-65-64-140-64-217v-51l-69-132c-15-29-16-59-2-82 14-23 40-36 71-37v-96c0-63 51-114 113-114 2 0 4 1 5 1l62 9v-62c0-20 17-37 37-37h416c27 0 48 22 48 48v133c0 21-16 37-37 37-20 0-37-16-37-37v-107h-353v68c0 0 0 0 0 1 0 0 0 1 0 2s0 1 0 2c0 0 0 0 0 1 0 0 0 0 0 0 0 1 0 2 0 3-1 0-1 1-1 1 0 1 0 2 0 2-1 1-1 1-1 2 0 0 0 1-1 1 0 1 0 2-1 2 0 1 0 1 0 2-1 0-1 1-2 1 0 1 0 1-1 2 0 0 0 1-1 1s0 1-1 2-1 1-1 1c0 0-1 1-1 1s-1 1-2 1c0 1-1 1-1 2 0 0-1 0-1 1-1 0-1 1-2 1 0 0-1 0-1 1-1 0-2 0-2 1 0 0-1 0-1 0-1 0-2 1-2 1-1 0-1 0-2 1 0 0-1 0-2 0 0 0-1 1-1 1-1 0-1 0-2 0-1 0-1 0-2 1 0 0-1 0-2 0 0 0-1 0-2 0 0 0 0 0-1 0 0 0 0 0 0 0-1 0-2 0-2 0-1 0-2 0-3 0 0 0 0 0 0 0l-101-15c-21 1-37 18-37 39v133c0 21-17 37-37 37h-34c-5 0-8 1-10 2 0 1 1 4 3 8l74 141c3 5 4 11 4 17v60c0 126 74 241 188 294 0 0 0 0 0 0 43 19 90 30 139 30 178 0 324-146 324-324 0-91-38-178-105-239z m-75 382c-40 41-94 63-151 63-57 0-111-22-151-63s-63-94-63-151c0-57 23-110 63-151 14-14 38-14 52 0 15 15 15 38 0 53-26 26-41 61-41 99 0 37 15 72 41 98s62 41 99 41c37 0 73-14 99-41s41-61 41-98c0-38-15-73-41-99-15-15-15-38 0-53 7-7 16-11 26-11 9 0 19 4 26 11 40 41 63 94 63 151 0 57-23 111-63 151z" horiz-adv-x="1000" />

<glyph glyph-name="head" unicode="&#xe8ce;" d="M761 213c-15-14-16-37-3-52 14-15 37-16 52-2 82 75 129 182 129 293 0 219-178 398-398 398-59 0-116-13-169-38-68-32-126-81-166-144-42-65-64-139-64-217v-51l-70-132c-15-29-15-59-1-82 14-23 39-36 71-37v-97c0-62 50-112 112-112 2 0 4 0 6 0l62 9v-62c0-21 16-37 36-37h416c27 0 48 21 48 48v133c0 20-16 37-36 37-21 0-37-17-37-37v-107h-354v68c0 0 0 1 0 1 0 1 0 1 0 2 0 1 0 1 0 2 0 0 0 0 0 1 0 0 0 0 0 1-1 0-1 1-1 2 0 0 0 1 0 1 0 1-1 1-1 2 0 1 0 1 0 2-1 1-1 1-1 2 0 0-1 1-1 1 0 1-1 1-1 2 0 0-1 1-1 1 0 1-1 1-1 2s-1 1-1 1-1 1-1 2c-1 0-1 1-1 1s-1 1-2 1 0 1-1 1-1 1-1 2c-1 0-1 0-2 1 0 0-1 0-1 1-1 0-1 0-1 0-1 1-2 1-2 1-1 1-1 1-2 1s-1 1-1 1c-1 0-2 0-2 1-1 0-1 0-2 0 0 0-1 1-1 1-1 0-2 0-2 0-1 0-1 0-2 0-1 0-1 0-2 0 0 0-1 0-2 1 0 0 0 0-1 0 0 0 0 0 0 0-1 0-2 0-2 0s-1-1-2-1c0 0-1 0-1 0l-101-15c-21 1-37 19-37 39v134c0 20-17 37-37 37h-35c-5 0-8 1-9 1 0 2 0 5 3 10l74 140c2 5 4 11 4 17v60c0 126 73 241 188 294 0 0 0 0 0 0 43 21 90 31 138 31 179 0 325-145 325-324 0-92-38-179-105-240z" horiz-adv-x="1000" />

<glyph glyph-name="heart-1" unicode="&#xe8d0;" d="M882 734c-41 32-90 52-141 59-89 11-176-16-241-74-65 59-152 86-241 74-52-7-101-27-142-59-74-58-117-145-117-238 0-80 31-156 88-212l359-359c14-14 32-21 50-21 17 0 35 7 49 21l56 55c14 15 14 39 0 53-15 15-39 15-53 0l-52-52-356 356c-43 42-66 99-66 159 0 70 32 135 88 179 31 24 67 39 106 44 71 9 140-14 190-64l41-41 41 41c50 50 119 73 190 64 38-5 75-21 105-44 59-45 91-113 89-186-2-58-27-114-70-157l-190-190c-14-14-14-38 0-52 15-15 39-15 53 0l190 189c57 57 90 131 92 208 3 97-40 187-118 247z" horiz-adv-x="1000" />

<glyph glyph-name="laptop" unicode="&#xe8d3;" d="M963 201h-376c-20 0-37-16-37-36v-10h-100v10c0 20-17 36-37 36h-253v406c0 25 20 45 45 45h589c25 0 46-20 46-45v-319c0-20 16-37 36-37 20 0 37 17 37 37v319c0 65-53 118-119 118h-589c-65 0-118-53-118-118v-406h-50c-20 0-37-16-37-36v-83c0-59 48-107 107-107h786c59 0 107 48 107 107v83c0 20-16 36-37 36z m-70-153h-786c-19 0-34 15-34 34v46h305c5-27 29-46 57-46h129c28 0 52 19 58 46h304v-46h0c0-19-14-34-33-34z" horiz-adv-x="1000" />

<glyph glyph-name="light-bulb" unicode="&#xe8d6;" d="M745 739c-62 71-151 111-245 111s-183-40-245-111c-52-59-81-136-80-215s29-157 81-216c9-9 18-19 28-27 34-31 48-60 48-98l0-39c0-20 16-37 36-37 0 0 0 0 1 0 20 0 36 16 36 37l1 38v0c0 60-23 109-73 154-8 6-15 14-22 21-84 95-84 238 0 333 48 55 117 86 189 86 73 0 142-31 190-86 83-95 83-238 0-332-7-8-15-15-22-22-49-44-73-93-73-152l0-40c0-20 16-37 36-37 0 0 0 0 1 0 20 0 36 16 36 36l1 40c0 1 0 1 0 1 0 39 14 67 48 97 10 9 19 18 28 28 52 59 80 135 80 215 0 80-28 156-80 215z m-114-693h-262c-21 0-37-17-37-37 0-21 16-37 37-37h263c20 0 36 16 36 37 0 20-16 37-37 37z m-60-122h-142c-20 0-37-17-37-37 0-20 17-37 37-37h142c20 0 37 17 37 37 0 20-17 37-37 37z m-45 494l-102 102c-14 14-37 14-52 0-14-15-14-38 0-52l91-91c0-54 0-233 0-233 0-20 17-37 37-37 20 0 37 17 37 37v245c0 14-5 23-11 29z m102 102c-14 14-38 14-52 0l-20-20c-14-14-14-37 0-52 7-7 17-11 26-11s19 4 27 11l19 20c14 14 14 37 0 52z" horiz-adv-x="1000" />

<glyph glyph-name="like-1" unicode="&#xe8d7;" d="M848 519h-193v139c0 68-20 117-61 147-63 47-150 20-153 19l-26-8v-197c0-48-26-90-77-126-17-12-21-35-10-52 12-16 35-20 52-9 72 50 109 115 109 187v139c19 2 43 1 61-13 21-14 31-44 31-87v-212h267c42 0 77-34 78-76l-55-348-1-2c-2-19-9-78-100-78h-415c-41 0-74 33-74 74v344c0 63-52 114-115 114h-52c-63 0-114-51-114-114v-353c0-63 51-114 114-114 21 0 37 16 37 37 0 20-16 37-37 37-22 0-40 18-40 40v353c0 22 18 40 40 40h52c22 0 40-18 40-40v-353c0-3 1-6 1-9 9-73 72-131 148-131h415c42 0 80 10 108 30 37 24 59 64 66 114l55 350c1 2 1 4 1 6 0 84-68 152-152 152z" horiz-adv-x="1000" />

<glyph glyph-name="doc-text-inv-1" unicode="&#xe8d8;" d="M600 800q42 0 71-29t29-71l0-700q0-40-29-70t-71-30l-500 0q-40 0-70 30t-30 70l0 700q0 42 30 71t70 29l500 0z m-460-208l0-88 420 0 0 88-420 0z m420-480l0 88-420 0 0-88 420 0z m0 196l0 90-418 0 0-90 418 0z" horiz-adv-x="700" />

<glyph glyph-name="login-1" unicode="&#xe8d9;" d="M782 376l-217 217c-15 15-38 15-52 0-15-14-15-37 0-52l154-154h-400c-20 0-37-17-37-37 0-20 17-37 37-37h401l-155-154c-14-15-14-38 0-53 7-7 16-10 26-10 9 0 19 3 26 10l217 218c14 14 14 37 0 52z m-661 11h-84c-20 0-37-17-37-37 0-20 17-37 37-37h84c20 0 37 17 37 37 0 20-17 37-37 37z m842 394h-243c-20 0-36-17-36-37 0-20 16-37 36-37h207v-714h-207c-20 0-36-17-36-37 0-20 16-37 36-37h243c21 0 37 17 37 37v788c0 20-16 37-37 37z" horiz-adv-x="1000" />

<glyph glyph-name="login-2" unicode="&#xe8da;" d="M832 850h-664c-92 0-168-76-168-169v-331c0-20 17-37 37-37h565l-81-81c-14-14-14-37 0-52 7-7 17-11 26-11 9 0 19 4 26 11l144 144c14 14 14 37 0 52l-144 144c-14 14-38 14-52 0-14-14-14-38 0-52l81-81h-528v294c0 53 42 95 94 95h664c52 0 94-42 94-95v-662c0-53-42-95-94-95h-664c-52 0-94 42-94 95v86c0 20-17 36-37 36-20 0-37-16-37-36v-86c0-93 76-169 168-169h664c92 0 168 76 168 169v662c0 93-76 169-168 169z" horiz-adv-x="1000" />

<glyph glyph-name="logout-1" unicode="&#xe8db;" d="M526 387h-401l155 154c14 15 14 38 0 52-14 15-37 15-52 0l-217-217c-15-14-15-38 0-52l217-218c7-7 17-10 26-10s19 3 26 10c14 15 14 38 0 52l-155 155h401c20 0 37 17 37 37 0 20-17 37-37 37z m230 0h-84c-20 0-37-17-37-37 0-20 17-37 37-37h84c21 0 37 17 37 37 0 20-17 37-37 37z m207 394h-243c-20 0-37-17-37-37 0-20 17-36 37-36h207v-716h-207c-20 0-37-16-37-36 0-20 17-37 37-37h243c21 0 37 17 37 37v788c0 20-16 37-37 37z" horiz-adv-x="1000" />

<glyph glyph-name="logout-2" unicode="&#xe8dc;" d="M121 387h-84c-20 0-37-17-37-37 0-20 17-37 37-37h84c20 0 37 17 37 37 0 20-17 37-37 37z m661-11l-217 217c-14 15-38 15-52 0-15-14-15-38 0-52l154-154h-400c-20 0-37-17-37-37 0-21 17-37 37-37h400l-154-154c-15-15-15-38 0-53 7-7 16-11 26-11 9 0 19 4 26 11l217 218c15 14 15 38 0 52z m181 405h-243c-20 0-37-17-37-37 0-20 17-37 37-37h206v-714h-206c-20 0-37-17-37-37 0-20 17-37 37-37h243c20 0 37 17 37 37v788c0 20-17 37-37 37z" horiz-adv-x="1000" />

<glyph glyph-name="next-2" unicode="&#xe8e4;" d="M793 382l-252 145c-17 11-40 4-50-13-10-18-4-40 13-51l197-113-300-173v410c0 20-17 37-37 37-20 0-37-17-37-37v-474c0-13 7-25 19-32 5-3 12-5 18-5 6 0 13 2 18 5l411 237c11 6 18 19 18 32 0 13-7 25-18 32z m61 322c-95 94-220 146-354 146s-259-52-353-146c-95-95-147-220-147-354s52-259 147-354c94-94 219-146 353-146s259 52 354 146c94 95 146 220 146 354s-52 259-146 354z m-354-780c-235 0-426 191-426 426s191 426 426 426 426-191 426-426-191-426-426-426z" horiz-adv-x="1000" />

<glyph glyph-name="next-3" unicode="&#xe8e5;" d="M800 526l-346 248c-11 8-26 9-38 3-12-7-20-19-20-33v-106c-158-15-270-78-334-188-55-95-62-204-62-277 0-17 11-32 27-36 3-1 7-1 10-1 13 0 25 7 32 18 80 141 156 174 220 187 19 4 32 24 28 44-4 19-24 32-43 28-74-16-135-50-189-109 27 128 109 251 350 263 19 1 35 17 35 37v69l246-177-246-177v69c0 20-17 37-37 37-20 0-37-17-37-37v-140c0-14 8-27 20-33 12-6 27-5 38 3l346 249c10 7 16 18 16 29s-6 23-16 30z m164 2h-52c-20 0-37-16-37-37 0-20 17-36 37-36h15v-462h-590v246c0 21-17 37-37 37-20 0-37-16-37-37v-283c0-20 17-37 37-37h663c21 0 37 17 37 37v535c0 21-16 37-36 37z" horiz-adv-x="1000" />

<glyph glyph-name="paper-plane" unicode="&#xe8ea;" d="M972 822c-27 28-67 35-103 21l-810-334c-37-15-60-50-59-90 1-40 26-74 64-87l277-95c12-4 26-1 36 7l350 297c16 13 17 37 4 53-13 15-36 17-52 4l-334-284-257 88c-12 4-14 15-14 19 0 4 1 15 13 20l810 333c11 5 20-1 22-4 3-3 10-11 5-23l-334-810c-4-12-15-13-19-13-4 0-15 2-19 14l-75 221c-7 20-28 30-48 24-19-7-29-28-23-48l76-221c13-38 47-63 87-64 1 0 2 0 3 0 38 0 72 23 87 59l334 810c14 36 7 75-21 103z" horiz-adv-x="1000" />

<glyph glyph-name="phone-call" unicode="&#xe8ed;" d="M814 99c-11 12-23 24-34 35-6 5-12 11-18 17l-50 50c-21 21-46 33-72 33-26 0-51-12-72-33-5-5-10-10-16-15-11-12-24-24-36-37-21 10-42 24-67 44-33 27-61 54-86 82-13 15-37 17-52 3-15-13-17-36-4-52 28-31 59-61 95-91 0 0 0 0 1 0 36-28 66-47 99-61 1 0 2 0 3-1 7-2 31-10 54 13 0 0 1 1 1 1 14 16 29 30 45 46 5 5 10 10 16 16 5 5 12 11 20 11 7 0 14-6 19-11l51-50c6-6 12-12 17-18 12-11 23-22 33-33 0 0 0 0 1-1 7-7 16-20-1-37l-62-63c-14-13-28-20-47-22-32-3-66 3-110 20-74 27-142 68-216 130-90 75-160 165-210 267-18 37-38 87-42 139-2 29 6 50 25 68 14 11 26 24 37 36 8 8 15 15 22 22l0 0c15 14 27 14 41 0l101-101c0 0 0 0 0 0 5-5 10-11 10-18 0-7-5-14-10-19l-63-63c-14-14-14-38 0-52 15-15 38-15 53 0l62 62c22 22 32 46 32 73 0 25-11 50-32 70l-101 101c-42 42-100 42-143 0-9-8-17-16-25-24-11-11-21-22-32-31 0-1-1-1-1-1-36-33-53-76-50-128 5-65 29-122 49-166v0c55-112 132-210 229-292 81-67 156-112 238-142 30-11 74-25 122-25 6 0 13 0 20 0h0c36 3 67 18 93 44l62 63c1 0 1 0 1 0 41 42 40 100 0 141z m-15 251c-12 75-48 143-102 197-53 54-121 90-196 102-20 4-40-10-43-30s10-39 30-43c60-10 114-38 157-81s72-98 82-157c3-18 18-31 36-31 2 0 4 0 6 1 20 3 34 22 30 42z m201 9c-21 123-79 234-168 323-88 88-200 146-322 167-20 3-39-10-43-30-3-20 10-40 30-43 108-18 205-69 283-146 78-78 128-176 146-283 3-18 19-31 37-31 2 0 4 0 6 1 20 3 34 22 31 42z" horiz-adv-x="1000" />

<glyph glyph-name="pie-chart" unicode="&#xe8f1;" d="M936 664c-41 63-98 114-165 146-19 9-41 1-50-17-9-19-1-41 17-50 103-49 173-148 186-260h-291v330c0 20-17 37-37 37-21 0-37-17-37-37v-367c0-21 16-37 37-37h367c20 0 37 16 37 37 0 77-22 153-64 218z m-62-321h-381v381c0 21-17 38-37 38-122 0-236-48-322-134-86-86-134-200-134-322 0-122 47-236 134-323 86-86 200-133 322-133 122 0 236 47 322 133 86 87 134 201 134 323 0 20-17 37-38 37z m-418-419c-210 0-382 172-382 382 0 198 152 361 345 379v-379c0-21 16-37 37-37h379c-18-193-182-345-379-345z" horiz-adv-x="1000" />

<glyph glyph-name="piggy-bank" unicode="&#xe8f2;" d="M522 729c-131-1-237-39-316-114-67-62-97-136-109-174-1-1-1-3-2-4h-58c-21 0-37-16-37-37 0-20 16-36 37-36h87c18 0 33 13 36 30 0 0 2 10 7 25 22 71 102 235 355 237 20 0 36 17 36 37 0 20-16 36-36 36z m400-247h-5c-22 53-57 101-103 141-5 21 0 43 15 66 13 20 13 45 0 66-13 20-36 31-60 27-84-10-129-53-152-87-11-17-7-40 10-51 17-11 40-7 51 10 17 26 43 43 77 52-16-35-20-71-11-105 1-10 6-19 13-26 48-38 83-87 100-141 5-15 20-25 36-25h29c3 0 5-2 5-5v-102c0-2-2-5-5-5h-28c-16 0-31-10-35-25-16-51-47-98-89-136 0 0 0 0-1 0 0 0 0 0 0 0-1-2-3-3-5-5 0 0 0 0 0 0-53-48-58-104-59-120 0-1 0-1 0-1v-20h-108v39c0 11-4 20-12 27-7 7-18 11-28 9-15-1-29-2-44-2-18 0-37 1-55 4-11 1-21-2-29-9-8-7-13-17-13-27v-41h-108c-2 28-11 92-62 144-22 23-42 53-59 90 0 0 0 1 0 1-10 20-18 40-23 61 0 1 0 1 0 1v0c-2 9-8 17-16 23-13 7-29 7-41-2-12-9-18-24-14-39 0 0 0 0 0-1 7-26 16-51 29-75 20-44 45-81 72-110 34-35 40-79 41-98v-9c0-1 0-2 0-2 0-2 1-3 1-4 3-30 28-53 58-53h136c33 0 59 26 59 59v14c12 0 24 0 35 0v-14c0-32 27-59 59-59h137c32 0 59 27 59 59v33c0 8 3 39 33 67 2 2 4 3 6 5 0 1 1 1 1 2 45 40 79 88 100 141h3c43 0 78 35 78 78v102c0 43-35 78-78 78z" horiz-adv-x="1000" />

<glyph glyph-name="placeholder" unicode="&#xe8f3;" d="M782 736c-80 77-185 117-296 114-203-7-371-165-390-367-4-38-2-77 5-116 0-1 1-6 3-13 6-28 15-55 27-80 41-97 131-247 325-408 13-11 28-16 44-16s31 5 44 16c194 161 284 311 325 408 12 25 21 52 27 80 2 7 3 12 3 13 5 25 7 51 7 77 0 111-44 215-124 292z m45-356c0 0 0-1 0-1 0-1-1-4-2-9 0 0 0 0 0 0-5-23-13-45-22-66-1 0-1-1-1-1-38-89-121-227-302-379-181 152-264 290-302 379 0 0 0 1 0 1-10 21-17 43-23 66 0 0 0 0 0 0-1 5-1 8-1 9 0 0-1 1-1 1-6 32-8 64-5 96 16 166 154 295 320 301 91 3 178-30 244-94 65-63 101-148 101-239 0-21-2-43-6-64z m-327 276c-119 0-216-97-216-216s97-217 216-217c20 0 37 17 37 37 0 20-17 36-37 36-79 0-143 65-143 144s64 143 143 143 143-64 143-143c0-35-12-67-34-93-13-16-12-39 4-52 15-13 38-11 52 4 33 39 51 89 51 141 0 119-97 216-216 216z" horiz-adv-x="1000" />

<glyph glyph-name="plug" unicode="&#xe8f6;" d="M950 574c-46 104-129 185-235 230-168 72-347 58-490-37-141-93-225-249-225-418 0-126 47-247 133-340 86-92 202-148 327-158 2 0 4 0 6 0 17 0 34 6 47 19 15 13 24 32 24 52v155c0 2-1 4-1 6 0 2 1 4 1 7 0 20-17 36-37 36-93 0-168 75-168 168v111h336v-111c0-47-20-91-54-123-14-14-15-37-2-52 14-14 37-15 52-2 49 46 77 110 77 177v148c0 20-16 36-37 36h-79v120c0 20-17 36-37 36-20 0-36-16-36-36v-120h-104v120c0 20-17 36-37 36-20 0-36-16-36-36v-120h-80c-20 0-36-16-36-36v-148c0-121 89-221 204-238v-132c-219 18-390 205-390 425 0 144 72 277 192 356 123 82 277 93 421 32 89-38 159-106 198-193 82-184 43-386-100-513-15-14-16-37-3-52 14-15 37-16 52-3 79 70 132 161 155 264 24 109 12 225-38 334z" horiz-adv-x="1000" />

<glyph glyph-name="power-button" unicode="&#xe8f7;" d="M658 387h-316c-20 0-36-17-36-37 0-20 16-37 36-37h316c20 0 37 17 37 37 0 20-17 37-37 37z m305 0h-161c-20 0-37-17-37-37 0-20 17-37 37-37h123c-19-218-202-390-425-390-235 0-426 192-426 427s191 427 426 427c145 0 278-73 357-194 11-17 34-22 51-11 17 12 22 34 11 51-93 142-250 227-419 227-133 0-259-52-353-146-95-95-147-220-147-354s52-259 147-354c94-94 220-146 353-146s259 52 354 146 146 221 146 354c0 20-16 37-37 37z" horiz-adv-x="1000" />

<glyph glyph-name="reload" unicode="&#xe8f9;" d="M994 351c0 20-16 36-36 36l-339 0c-3 0-5 1-8 1-20 0-36-17-36-37 0-43-35-78-78-78s-78 35-78 78 34 78 78 78c20 0 36 16 36 37 0 20-16 36-36 36-72 0-132-49-148-115l-269-1c10 140 89 266 212 336 176 99 394 57 521-90l-104 19c-20 4-40-9-43-29-4-20 9-39 29-43l192-35c2-1 4-1 6-1 17 0 32 12 36 29l1 2c0 0 0 0 0 1v0l35 190c4 20-9 39-30 43s-39-10-42-30l-19-103c-64 75-148 130-245 157-126 35-259 19-373-46-157-89-253-257-250-437 0-20 17-37 37-37l307 1c16-66 76-114 146-114 71 0 131 49 147 114l277 0c-10-139-89-265-212-335-97-55-210-69-317-39-83 23-155 70-209 134l110-15c20-2 39 12 41 32 3 20-11 39-31 41l-193 26c-21 3-39-11-42-32l-25-193c-3-20 11-39 31-41 2 0 4-1 5-1 18 0 34 14 37 32l13 101c63-74 147-128 243-155 43-12 88-18 132-18 84 0 166 22 241 64 158 89 253 256 250 437z" horiz-adv-x="1000" />

<glyph glyph-name="repeat" unicode="&#xe8fc;" d="M932 668l-171 171c-11 11-27 14-40 8s-23-19-23-33v-135h-390c-138 0-250-112-250-249 0-20 16-37 36-37 21 0 37 17 37 37 0 97 79 176 177 176h427c20 0 36 17 36 37v83l83-83-145-145c-14-15-14-38 0-52s37-14 52 0l171 171c14 14 14 37 0 51z m-26-361c-20 0-37-16-37-36 0-98-79-177-176-177h-428c-20 0-36-16-36-37v-83l-83 83 145 146c14 14 14 37 0 51-14 14-37 14-52 0l-171-171c-14-14-14-37 0-51l172-171c6-7 16-11 25-11 5 0 10 1 14 3 14 5 23 19 23 33v135h391c137 0 249 112 249 250 0 20-16 36-36 36z" horiz-adv-x="1000" />

<glyph glyph-name="search" unicode="&#xe900;" d="M963 69l-89 88c-14 15-38 15-52 0-15-14-15-38 0-52l88-89c21-21 21-55 0-76-10-10-24-15-38-15s-28 5-38 15l-170 170 103 102c14 15 14 38 0 53-15 14-38 14-53 0l-38-38-54 53c111 137 103 340-25 467-66 66-154 103-247 103-94 0-182-37-248-103-136-136-136-358 0-494 66-66 154-103 248-103 81 0 157 27 220 78l53-54-38-38c-7-7-11-17-11-26s4-20 11-27l196-196c26-24 58-37 91-37 33 0 66 13 91 38 50 50 50 131 0 181z m-418 236c-52-52-121-80-195-80s-143 28-195 80c-107 108-107 283 0 390 52 52 122 81 195 81 74 0 143-29 195-81 108-107 108-282 0-390z" horiz-adv-x="1000" />

</font>
</defs>
</svg>
